<svg width="177" height="68" viewBox="0 0 177 68" fill="none" xmlns="http://www.w3.org/2000/svg">
<path d="M12 0C5.37258 0 0 5.37258 0 12V56C0 62.6274 5.37258 68 12 68H164.078C170.706 68 176.078 62.6274 176.078 56V12C176.078 5.37258 170.706 0 164.078 0H12Z" fill="black"/>
<path d="M41.9391 34.5953C41.9297 32.875 42.7078 31.5766 44.2828 30.6203C43.4016 29.3594 42.0703 28.6656 40.3125 28.5297C38.6484 28.3984 36.8297 29.5 36.1641 29.5C35.4609 29.5 33.8484 28.5766 32.5828 28.5766C29.9672 28.6187 27.1875 30.6625 27.1875 34.8203C27.1875 36.0484 27.4125 37.3172 27.8625 38.6266C28.4625 40.3469 30.6281 44.5656 32.8875 44.4953C34.0687 44.4672 34.9031 43.6562 36.4406 43.6562C37.9312 43.6562 38.7047 44.4953 40.0219 44.4953C42.3 44.4625 44.2594 40.6281 44.8312 38.9031C41.775 37.4641 41.9391 34.6844 41.9391 34.5953ZM39.2859 26.8984C40.5656 25.3797 40.4484 23.9969 40.4109 23.5C39.2812 23.5656 37.9734 24.2688 37.2281 25.1359C36.4078 26.0641 35.925 27.2125 36.0281 28.5063C37.2516 28.6 38.3672 27.9719 39.2859 26.8984Z" fill="white"/>
<path d="M59.75 24H57.0576V15.2725H59.8701C60.7158 15.2725 61.4395 15.4463 62.041 15.7939C62.6445 16.1416 63.1064 16.6406 63.4268 17.291C63.749 17.9395 63.9102 18.7158 63.9102 19.6201C63.9102 20.5283 63.748 21.3105 63.4238 21.9668C63.0996 22.6211 62.6279 23.124 62.0088 23.4756C61.3896 23.8252 60.6367 24 59.75 24ZM58.1123 23.0625H59.6826C60.4033 23.0625 61.001 22.9238 61.4756 22.6465C61.9502 22.3672 62.3037 21.9707 62.5361 21.457C62.7705 20.9414 62.8877 20.3291 62.8877 19.6201C62.8877 18.915 62.7725 18.3076 62.542 17.7979C62.3115 17.2881 61.9678 16.8965 61.5107 16.623C61.0537 16.3477 60.4834 16.21 59.7998 16.21H58.1123V23.0625ZM68.2049 24.1377C67.6131 24.1377 67.0945 23.9971 66.6492 23.7158C66.2058 23.4346 65.8592 23.041 65.6092 22.5352C65.3611 22.0293 65.2371 21.4385 65.2371 20.7627C65.2371 20.0791 65.3611 19.4834 65.6092 18.9756C65.8592 18.4678 66.2058 18.0732 66.6492 17.792C67.0945 17.5107 67.6131 17.3701 68.2049 17.3701C68.7947 17.3701 69.3123 17.5107 69.7576 17.792C70.2029 18.0732 70.5496 18.4678 70.7976 18.9756C71.0457 19.4834 71.1697 20.0791 71.1697 20.7627C71.1697 21.4385 71.0457 22.0293 70.7976 22.5352C70.5496 23.041 70.2029 23.4346 69.7576 23.7158C69.3123 23.9971 68.7947 24.1377 68.2049 24.1377ZM68.2049 23.2324C68.6541 23.2324 69.0232 23.1182 69.3123 22.8896C69.6013 22.6592 69.8152 22.3564 69.9539 21.9814C70.0945 21.6064 70.1648 21.2002 70.1648 20.7627C70.1648 20.3252 70.0945 19.918 69.9539 19.541C69.8152 19.1621 69.6013 18.8564 69.3123 18.624C69.0232 18.3896 68.6541 18.2725 68.2049 18.2725C67.7556 18.2725 67.3855 18.3896 67.0945 18.624C66.8055 18.8564 66.5916 19.1621 66.4529 19.541C66.3142 19.918 66.2449 20.3252 66.2449 20.7627C66.2449 21.2002 66.3142 21.6064 66.4529 21.9814C66.5916 22.3564 66.8055 22.6592 67.0945 22.8896C67.3855 23.1182 67.7556 23.2324 68.2049 23.2324ZM73.9644 24L71.9723 17.4551H73.0269L74.442 22.4648H74.5123L75.9098 17.4551H76.982L78.3619 22.4502H78.4322L79.8473 17.4551H80.9019L78.9098 24H77.9195L76.4869 18.9727H76.3873L74.9547 24H73.9644ZM83.2367 20.0625V24H82.2318V17.4551H83.2044V18.4775H83.2894C83.4417 18.1455 83.6742 17.8779 83.9867 17.6748C84.2992 17.4717 84.7035 17.3701 85.1996 17.3701C85.641 17.3701 86.0277 17.46 86.3597 17.6396C86.6937 17.8193 86.9525 18.0918 87.1361 18.457C87.3216 18.8223 87.4144 19.2832 87.4144 19.8398V24H86.4095V19.9102C86.4095 19.3945 86.2757 18.9932 86.0081 18.7061C85.7406 18.417 85.3744 18.2725 84.9095 18.2725C84.5872 18.2725 84.3001 18.3428 84.0482 18.4834C83.7982 18.6221 83.5999 18.8252 83.4535 19.0928C83.3089 19.3584 83.2367 19.6816 83.2367 20.0625ZM90.2592 15.2725V24H89.2543V15.2725H90.2592ZM94.761 24.1377C94.1692 24.1377 93.6507 23.9971 93.2053 23.7158C92.762 23.4346 92.4153 23.041 92.1653 22.5352C91.9173 22.0293 91.7932 21.4385 91.7932 20.7627C91.7932 20.0791 91.9173 19.4834 92.1653 18.9756C92.4153 18.4678 92.762 18.0732 93.2053 17.792C93.6507 17.5107 94.1692 17.3701 94.761 17.3701C95.3508 17.3701 95.8684 17.5107 96.3137 17.792C96.759 18.0732 97.1057 18.4678 97.3538 18.9756C97.6018 19.4834 97.7258 20.0791 97.7258 20.7627C97.7258 21.4385 97.6018 22.0293 97.3538 22.5352C97.1057 23.041 96.759 23.4346 96.3137 23.7158C95.8684 23.9971 95.3508 24.1377 94.761 24.1377ZM94.761 23.2324C95.2102 23.2324 95.5794 23.1182 95.8684 22.8896C96.1575 22.6592 96.3714 22.3564 96.51 21.9814C96.6507 21.6064 96.721 21.2002 96.721 20.7627C96.721 20.3252 96.6507 19.918 96.51 19.541C96.3714 19.1621 96.1575 18.8564 95.8684 18.624C95.5794 18.3896 95.2102 18.2725 94.761 18.2725C94.3118 18.2725 93.9417 18.3896 93.6507 18.624C93.3616 18.8564 93.1477 19.1621 93.009 19.541C92.8704 19.918 92.801 20.3252 92.801 20.7627C92.801 21.2002 92.8704 21.6064 93.009 21.9814C93.1477 22.3564 93.3616 22.6592 93.6507 22.8896C93.9417 23.1182 94.3118 23.2324 94.761 23.2324ZM101.187 24.1523C100.771 24.1523 100.395 24.0742 100.057 23.918C99.7187 23.7598 99.4502 23.5312 99.251 23.2324C99.0517 22.9316 98.9521 22.5684 98.9521 22.1426C98.9521 21.7676 99.0264 21.4629 99.1748 21.2285C99.3232 20.9941 99.5205 20.8105 99.7666 20.6777C100.015 20.543 100.288 20.4424 100.587 20.376C100.888 20.3096 101.189 20.2559 101.492 20.2148C101.891 20.1641 102.214 20.126 102.462 20.1006C102.712 20.0732 102.894 20.0273 103.007 19.9629C103.122 19.8965 103.18 19.7822 103.18 19.6201V19.585C103.18 19.165 103.065 18.8389 102.837 18.6064C102.608 18.3721 102.263 18.2549 101.8 18.2549C101.319 18.2549 100.942 18.3604 100.669 18.5713C100.397 18.7822 100.206 19.0068 100.095 19.2451L99.1396 18.9023C99.3115 18.5059 99.54 18.1963 99.8252 17.9736C100.11 17.749 100.423 17.5928 100.763 17.5049C101.103 17.415 101.437 17.3701 101.765 17.3701C101.976 17.3701 102.218 17.3955 102.491 17.4463C102.767 17.4951 103.032 17.5967 103.288 17.751C103.546 17.9033 103.76 18.1348 103.93 18.4453C104.102 18.7539 104.187 19.168 104.187 19.6875V24H103.18V23.1123H103.13C103.062 23.2549 102.947 23.4072 102.787 23.5693C102.629 23.7314 102.418 23.8691 102.154 23.9824C101.891 24.0957 101.568 24.1523 101.187 24.1523ZM101.34 23.25C101.738 23.25 102.074 23.1719 102.348 23.0156C102.621 22.8594 102.828 22.6582 102.969 22.4121C103.109 22.1641 103.18 21.9033 103.18 21.6299V20.71C103.139 20.7607 103.046 20.8066 102.901 20.8477C102.759 20.8887 102.594 20.9248 102.406 20.9561C102.221 20.9854 102.04 21.0107 101.864 21.0322C101.69 21.0537 101.55 21.0713 101.442 21.085C101.181 21.1201 100.937 21.1758 100.71 21.252C100.485 21.3262 100.304 21.4375 100.165 21.5859C100.028 21.7344 99.9599 21.9365 99.9599 22.1924C99.9599 22.542 100.09 22.8057 100.35 22.9834C100.609 23.1611 100.939 23.25 101.34 23.25ZM108.499 24.1377C107.954 24.1377 107.473 23.999 107.055 23.7217C106.637 23.4443 106.31 23.0527 106.074 22.5469C105.837 22.0391 105.719 21.4385 105.719 20.7451C105.719 20.0576 105.837 19.4609 106.074 18.9551C106.31 18.4492 106.638 18.0586 107.058 17.7832C107.478 17.5078 107.964 17.3701 108.517 17.3701C108.943 17.3701 109.28 17.4404 109.528 17.5811C109.776 17.7217 109.966 17.8809 110.099 18.0586C110.232 18.2363 110.334 18.3818 110.407 18.4951H110.494V15.2725H111.499V24H110.527V22.9951H110.407C110.334 23.1143 110.23 23.2646 110.093 23.4463C109.956 23.626 109.761 23.7861 109.507 23.9268C109.255 24.0674 108.919 24.1377 108.499 24.1377ZM108.634 23.2324C109.038 23.2324 109.379 23.127 109.657 22.916C109.936 22.7031 110.148 22.4092 110.292 22.0342C110.437 21.6572 110.509 21.2217 110.509 20.7275C110.509 20.2393 110.438 19.8115 110.295 19.4443C110.155 19.0752 109.945 18.7881 109.665 18.583C109.388 18.376 109.044 18.2725 108.634 18.2725C108.208 18.2725 107.854 18.3818 107.571 18.6006C107.289 18.8174 107.078 19.1113 106.938 19.4824C106.797 19.8516 106.727 20.2666 106.727 20.7275C106.727 21.1924 106.798 21.6152 106.941 21.9961C107.085 22.375 107.298 22.6758 107.579 22.8984C107.863 23.1211 108.214 23.2324 108.634 23.2324ZM119.51 24.1377C118.919 24.1377 118.4 23.9971 117.955 23.7158C117.511 23.4346 117.165 23.041 116.915 22.5352C116.667 22.0293 116.543 21.4385 116.543 20.7627C116.543 20.0791 116.667 19.4834 116.915 18.9756C117.165 18.4678 117.511 18.0732 117.955 17.792C118.4 17.5107 118.919 17.3701 119.51 17.3701C120.1 17.3701 120.618 17.5107 121.063 17.792C121.508 18.0732 121.855 18.4678 122.103 18.9756C122.351 19.4834 122.475 20.0791 122.475 20.7627C122.475 21.4385 122.351 22.0293 122.103 22.5352C121.855 23.041 121.508 23.4346 121.063 23.7158C120.618 23.9971 120.1 24.1377 119.51 24.1377ZM119.51 23.2324C119.96 23.2324 120.329 23.1182 120.618 22.8896C120.907 22.6592 121.121 22.3564 121.259 21.9814C121.4 21.6064 121.47 21.2002 121.47 20.7627C121.47 20.3252 121.4 19.918 121.259 19.541C121.121 19.1621 120.907 18.8564 120.618 18.624C120.329 18.3896 119.96 18.2725 119.51 18.2725C119.061 18.2725 118.691 18.3896 118.4 18.624C118.111 18.8564 117.897 19.1621 117.758 19.541C117.62 19.918 117.55 20.3252 117.55 20.7627C117.55 21.2002 117.62 21.6064 117.758 21.9814C117.897 22.3564 118.111 22.6592 118.4 22.8896C118.691 23.1182 119.061 23.2324 119.51 23.2324ZM125.014 20.0625V24H124.009V17.4551H124.982V18.4775H125.067C125.219 18.1455 125.451 17.8779 125.764 17.6748C126.076 17.4717 126.481 17.3701 126.977 17.3701C127.418 17.3701 127.805 17.46 128.137 17.6396C128.471 17.8193 128.73 18.0918 128.913 18.457C129.099 18.8223 129.192 19.2832 129.192 19.8398V24H128.187V19.9102C128.187 19.3945 128.053 18.9932 127.785 18.7061C127.518 18.417 127.152 18.2725 126.687 18.2725C126.365 18.2725 126.077 18.3428 125.826 18.4834C125.576 18.6221 125.377 18.8252 125.231 19.0928C125.086 19.3584 125.014 19.6816 125.014 20.0625ZM137.254 17.4551V18.3076H133.862V17.4551H137.254ZM134.849 15.8877H135.857V22.125C135.857 22.4082 135.899 22.6201 135.983 22.7607C136.067 22.9014 136.174 22.9951 136.305 23.042C136.438 23.0889 136.577 23.1123 136.724 23.1123C136.835 23.1123 136.926 23.1064 136.996 23.0947C137.069 23.0811 137.126 23.0703 137.169 23.0625L137.374 23.9648C137.306 23.9902 137.21 24.0166 137.087 24.0439C136.966 24.0713 136.812 24.085 136.624 24.085C136.339 24.085 136.061 24.0244 135.789 23.9033C135.518 23.7803 135.293 23.5938 135.116 23.3438C134.938 23.0937 134.849 22.7783 134.849 22.3975V15.8877ZM139.911 20.0625V24H138.906V15.2725H139.911V18.4775H139.999C140.152 18.1396 140.382 17.8711 140.691 17.6719C140.999 17.4707 141.41 17.3701 141.924 17.3701C142.369 17.3701 142.76 17.459 143.096 17.6367C143.432 17.8145 143.693 18.0859 143.878 18.4512C144.064 18.8145 144.156 19.2773 144.156 19.8398V24H143.152V19.9102C143.152 19.3887 143.017 18.9854 142.747 18.7002C142.48 18.415 142.109 18.2725 141.634 18.2725C141.304 18.2725 141.009 18.3428 140.749 18.4834C140.489 18.6221 140.284 18.8252 140.134 19.0928C139.986 19.3584 139.911 19.6816 139.911 20.0625ZM148.742 24.1377C148.111 24.1377 147.568 23.998 147.11 23.7188C146.655 23.4375 146.305 23.0449 146.059 22.541C145.813 22.0371 145.69 21.4492 145.69 20.7773C145.69 20.1074 145.813 19.5166 146.059 19.0049C146.305 18.4912 146.649 18.0908 147.09 17.8037C147.531 17.5146 148.048 17.3701 148.64 17.3701C148.982 17.3701 149.318 17.4268 149.651 17.54C149.983 17.6533 150.284 17.8369 150.556 18.0908C150.829 18.3447 151.047 18.6807 151.209 19.0986C151.371 19.5166 151.452 20.0313 151.452 20.6426V21.0674H146.407V20.2002H150.43C150.43 19.8291 150.357 19.499 150.21 19.21C150.064 18.9209 149.856 18.6924 149.586 18.5244C149.318 18.3564 149.003 18.2725 148.64 18.2725C148.239 18.2725 147.894 18.3711 147.603 18.5684C147.312 18.7656 147.088 19.0225 146.932 19.3389C146.776 19.6533 146.697 19.9912 146.697 20.3525V20.9326C146.697 21.4268 146.783 21.8447 146.955 22.1865C147.127 22.5283 147.366 22.7881 147.673 22.9658C147.98 23.1436 148.336 23.2324 148.742 23.2324C149.006 23.2324 149.245 23.1953 149.46 23.1211C149.675 23.0449 149.86 22.9307 150.017 22.7783C150.173 22.626 150.293 22.4365 150.377 22.21L151.35 22.4824C151.248 22.8125 151.076 23.1016 150.834 23.3496C150.592 23.5977 150.293 23.791 149.938 23.9297C149.584 24.0684 149.186 24.1377 148.742 24.1377Z" fill="white"/>
<path d="M58.5488 49H56.4482L61.1592 35.9087H63.4399L68.1509 49H66.0547L62.3501 38.2861H62.249L58.5488 49ZM58.896 43.876H65.6943V45.5327H58.896V43.876ZM69.8818 52.6826V39.1826H71.7495V40.7734H71.9077C72.022 40.5684 72.1831 40.3325 72.3911 40.0659C72.5991 39.7964 72.8892 39.5605 73.2612 39.3584C73.6333 39.1562 74.1226 39.0552 74.729 39.0552C75.52 39.0552 76.2261 39.2559 76.8472 39.6572C77.4712 40.0557 77.9604 40.6328 78.3149 41.3887C78.6724 42.1416 78.8511 43.0498 78.8511 44.1133C78.8511 45.1709 78.6738 46.0791 78.3193 46.8379C77.9678 47.5938 77.4829 48.1753 76.8647 48.5825C76.2466 48.9868 75.5405 49.189 74.7466 49.189C74.1489 49.189 73.6626 49.0894 73.2876 48.8901C72.9126 48.6909 72.6167 48.458 72.3999 48.1914C72.186 47.9219 72.022 47.6816 71.9077 47.4707H71.7935V52.6826H69.8818ZM71.7583 44.0913C71.7583 44.7798 71.8579 45.3848 72.0571 45.9062C72.2563 46.4277 72.5464 46.835 72.9272 47.1279C73.3081 47.418 73.7725 47.563 74.3203 47.563C74.8887 47.563 75.3647 47.4106 75.7485 47.106C76.1353 46.8013 76.4268 46.3867 76.623 45.8623C76.8193 45.3379 76.9175 44.7476 76.9175 44.0913C76.9175 43.4409 76.8208 42.8594 76.6274 42.3467C76.4341 41.8311 76.1455 41.4253 75.7617 41.1294C75.3779 40.8306 74.8975 40.6812 74.3203 40.6812C73.7637 40.6812 73.2949 40.8232 72.9141 41.1074C72.5361 41.3916 72.249 41.79 72.0527 42.3027C71.8564 42.8125 71.7583 43.4087 71.7583 44.0913ZM80.9911 52.6826V39.1826H82.8588V40.7734H83.017C83.1313 40.5684 83.2924 40.3325 83.5004 40.0659C83.7084 39.7964 83.9985 39.5605 84.3705 39.3584C84.7426 39.1562 85.2319 39.0552 85.8383 39.0552C86.6293 39.0552 87.3354 39.2559 87.9565 39.6572C88.5805 40.0557 89.0697 40.6328 89.4242 41.3887C89.7817 42.1416 89.9604 43.0498 89.9604 44.1133C89.9604 45.1709 89.7831 46.0791 89.4286 46.8379C89.0771 47.5938 88.5922 48.1753 87.974 48.5825C87.3559 48.9868 86.6498 49.189 85.8559 49.189C85.2582 49.189 84.7719 49.0894 84.3969 48.8901C84.0219 48.6909 83.726 48.458 83.5092 48.1914C83.2953 47.9219 83.1313 47.6816 83.017 47.4707H82.9028V52.6826H80.9911ZM82.8676 44.0913C82.8676 44.7798 82.9672 45.3848 83.1664 45.9062C83.3656 46.4277 83.6557 46.835 84.0365 47.1279C84.4174 47.418 84.8818 47.563 85.4296 47.563C85.998 47.563 86.474 47.4106 86.8578 47.106C87.2446 46.8013 87.5361 46.3867 87.7323 45.8623C87.9286 45.3379 88.0268 44.7476 88.0268 44.0913C88.0268 43.4409 87.9301 42.8594 87.7367 42.3467C87.5434 41.8311 87.2548 41.4253 86.871 41.1294C86.4872 40.8306 86.0068 40.6812 85.4296 40.6812C84.873 40.6812 84.4042 40.8232 84.0234 41.1074C83.6454 41.3916 83.3583 41.79 83.162 42.3027C82.9657 42.8125 82.8676 43.4087 82.8676 44.0913ZM104.159 39.3452C104.092 38.7417 103.812 38.2729 103.32 37.939C102.828 37.605 102.207 37.438 101.457 37.438C100.921 37.438 100.456 37.5215 100.064 37.6885C99.6711 37.8555 99.3664 38.0854 99.1496 38.3784C98.9358 38.6714 98.8288 39.0039 98.8288 39.376C98.8259 39.6865 98.8977 39.9546 99.0442 40.1802C99.1936 40.4058 99.3884 40.5947 99.6286 40.7471C99.8689 40.8965 100.127 41.021 100.402 41.1206C100.68 41.2202 100.948 41.3022 101.206 41.3667L102.485 41.6963C102.901 41.7988 103.329 41.9395 103.768 42.1182C104.208 42.2939 104.613 42.5239 104.986 42.8081C105.361 43.0923 105.664 43.4453 105.895 43.8672C106.13 44.2891 106.247 44.7944 106.247 45.3833C106.247 46.1216 106.056 46.7793 105.676 47.3564C105.295 47.9336 104.742 48.3877 104.019 48.7188C103.298 49.0498 102.425 49.2153 101.4 49.2153C100.421 49.2153 99.573 49.0615 98.8552 48.7539C98.1404 48.4434 97.5808 48.001 97.1765 47.4268C96.7722 46.8525 96.5481 46.1699 96.5041 45.3789H98.4904C98.5285 45.8535 98.6823 46.2476 98.9519 46.561C99.2214 46.8716 99.5686 47.1045 99.9934 47.2598C100.418 47.4121 100.884 47.4883 101.391 47.4883C101.95 47.4883 102.448 47.4004 102.885 47.2246C103.322 47.0459 103.664 46.7983 103.913 46.4819C104.165 46.1626 104.293 45.7905 104.296 45.3657C104.293 44.9761 104.181 44.6582 103.962 44.4121C103.745 44.1631 103.449 43.958 103.074 43.7969C102.699 43.6357 102.279 43.4937 101.813 43.3706L100.266 42.9443C99.2141 42.6602 98.382 42.2412 97.7697 41.6875C97.1604 41.1309 96.8571 40.3984 96.8601 39.4902C96.8571 38.7373 97.0593 38.0796 97.4665 37.5171C97.8767 36.9517 98.4319 36.5122 99.132 36.1987C99.8322 35.8853 100.62 35.7285 101.496 35.7285C102.384 35.7285 103.166 35.8853 103.843 36.1987C104.523 36.5093 105.059 36.937 105.451 37.4819C105.844 38.0239 106.049 38.645 106.067 39.3452H104.159ZM113.039 39.1826V40.7163H107.673V39.1826H113.039ZM109.11 36.8315H111.022V46.1172C111.022 46.4863 111.076 46.7646 111.185 46.9521C111.296 47.1396 111.441 47.2656 111.62 47.3301C111.798 47.3945 111.992 47.4268 112.2 47.4268C112.355 47.4268 112.488 47.4165 112.6 47.396C112.714 47.3755 112.803 47.3594 112.868 47.3477L113.219 48.9253C113.105 48.9663 112.945 49.0088 112.74 49.0527C112.535 49.0996 112.28 49.126 111.976 49.1318C111.472 49.1406 111.001 49.0513 110.565 48.8638C110.131 48.6733 109.78 48.3833 109.51 47.9937C109.244 47.6011 109.11 47.1074 109.11 46.5127V36.8315ZM119.177 49.1978C118.257 49.1978 117.454 48.9868 116.768 48.5649C116.083 48.1431 115.55 47.5527 115.169 46.7939C114.791 46.0352 114.602 45.1489 114.602 44.1353C114.602 43.1157 114.791 42.2251 115.169 41.4634C115.55 40.7017 116.083 40.1099 116.768 39.688C117.454 39.2661 118.257 39.0552 119.177 39.0552C120.099 39.0552 120.904 39.2661 121.589 39.688C122.275 40.1099 122.806 40.7017 123.184 41.4634C123.565 42.2251 123.756 43.1157 123.756 44.1353C123.756 45.1489 123.565 46.0352 123.184 46.7939C122.806 47.5527 122.275 48.1431 121.589 48.5649C120.904 48.9868 120.099 49.1978 119.177 49.1978ZM119.185 47.5938C119.783 47.5938 120.277 47.4355 120.666 47.1191C121.059 46.8027 121.35 46.3823 121.541 45.8579C121.731 45.3335 121.826 44.7578 121.826 44.1309C121.826 43.5039 121.731 42.9268 121.541 42.3994C121.35 41.8721 121.059 41.4487 120.666 41.1294C120.277 40.8101 119.783 40.6504 119.185 40.6504C118.582 40.6504 118.084 40.8101 117.691 41.1294C117.299 41.4487 117.007 41.8721 116.817 42.3994C116.626 42.9268 116.531 43.5039 116.531 44.1309C116.531 44.7578 116.626 45.3335 116.817 45.8579C117.007 46.3823 117.299 46.8027 117.691 47.1191C118.084 47.4355 118.582 47.5938 119.185 47.5938ZM125.882 49V39.1826H127.732V40.7427H127.838C128.016 40.2153 128.331 39.7993 128.783 39.4946C129.237 39.187 129.751 39.0332 130.325 39.0332C130.445 39.0332 130.586 39.0376 130.747 39.0464C130.911 39.0552 131.041 39.0669 131.138 39.0815V40.9097C131.062 40.8892 130.926 40.8643 130.729 40.835C130.536 40.8057 130.34 40.791 130.14 40.791C129.692 40.791 129.291 40.8862 128.936 41.0767C128.582 41.2671 128.302 41.5293 128.097 41.8633C127.895 42.1973 127.794 42.5781 127.794 43.0059V49H125.882ZM136.677 49.1978C135.71 49.1978 134.876 48.9897 134.176 48.5737C133.479 48.1577 132.941 47.5718 132.563 46.8159C132.188 46.0601 132.001 45.1738 132.001 44.1572C132.001 43.1494 132.188 42.2632 132.563 41.4985C132.941 40.731 133.47 40.1318 134.15 39.7012C134.83 39.2705 135.625 39.0552 136.536 39.0552C137.093 39.0552 137.63 39.146 138.149 39.3276C138.67 39.5093 139.136 39.7964 139.546 40.189C139.959 40.5815 140.286 41.0913 140.526 41.7183C140.767 42.3423 140.887 43.0996 140.887 43.9902V44.6626H133.082V43.23H139.01C139.01 42.7319 138.908 42.2881 138.703 41.8984C138.5 41.5059 138.215 41.1968 137.846 40.9712C137.479 40.7456 137.049 40.6328 136.554 40.6328C136.015 40.6328 135.546 40.7646 135.147 41.0283C134.752 41.2891 134.446 41.6304 134.229 42.0522C134.012 42.4712 133.904 42.9253 133.904 43.4146V44.5308C133.904 45.187 134.019 45.7451 134.251 46.2051C134.485 46.665 134.81 47.0166 135.226 47.2598C135.645 47.5 136.133 47.6201 136.69 47.6201C137.056 47.6201 137.387 47.5688 137.683 47.4663C137.982 47.3608 138.24 47.2041 138.456 46.9961C138.673 46.7881 138.84 46.5288 138.957 46.2183L140.764 46.5435C140.62 47.0767 140.362 47.5425 139.99 47.9409C139.618 48.3394 139.151 48.6484 138.588 48.8682C138.026 49.0879 137.389 49.1978 136.677 49.1978Z" fill="white"/>
</svg>
