<svg width="48" height="49" viewBox="0 0 48 49" fill="none" xmlns="http://www.w3.org/2000/svg">
<path d="M40.3059 16.6659L38.7619 13.9856C38.5619 13.6381 38.2683 13.4122 37.8811 13.3078C37.494 13.2035 37.1266 13.2513 36.7791 13.4513L27.555 18.795C27.4967 18.8286 27.4339 18.8454 27.3666 18.8452C27.2994 18.8451 27.2366 18.8281 27.1785 18.7942C27.1204 18.7603 27.0747 18.7141 27.0415 18.6556C27.0082 18.5971 26.9919 18.5342 26.9925 18.4669L27 7.82812C27 7.41391 26.8535 7.06036 26.5607 6.76746C26.2678 6.47457 25.9142 6.32812 25.5 6.32812H22.5C22.0858 6.32812 21.7322 6.47457 21.4393 6.76747C21.1464 7.06036 21 7.41391 21 7.82812L21.0066 18.4753C21.0072 18.5426 20.9908 18.6055 20.9576 18.664C20.9243 18.7225 20.8786 18.7687 20.8205 18.8026C20.7624 18.8365 20.6997 18.8535 20.6324 18.8537C20.5651 18.8538 20.5023 18.8371 20.4441 18.8034L11.22 13.4597C10.8724 13.2597 10.5051 13.2119 10.1179 13.3163C9.73077 13.4206 9.43719 13.6465 9.23718 13.9941L7.69406 16.6753C7.49367 17.022 7.4456 17.3886 7.54985 17.7752C7.65411 18.1618 7.87999 18.4545 8.22749 18.6534L17.4609 24.0047C17.5844 24.0771 17.6462 24.185 17.6462 24.3281C17.6462 24.4713 17.5844 24.5791 17.4609 24.6516L8.22749 30.0028C7.88263 30.2038 7.65824 30.4969 7.55432 30.8823C7.4504 31.2676 7.49698 31.6339 7.69406 31.9809L9.23812 34.6613C9.43812 35.0088 9.7317 35.2347 10.1189 35.3391C10.506 35.4434 10.8734 35.3956 11.2209 35.1956L20.445 29.8519C20.5033 29.8182 20.5661 29.8015 20.6333 29.8016C20.7006 29.8018 20.7633 29.8188 20.8215 29.8527C20.8796 29.8866 20.9253 29.9328 20.9585 29.9913C20.9918 30.0498 21.0081 30.1127 21.0075 30.18L21 40.8281C21 41.2423 21.1464 41.5959 21.4393 41.8888C21.7322 42.1817 22.0858 42.3281 22.5 42.3281H25.5C25.9142 42.3281 26.2678 42.1817 26.5607 41.8888C26.8535 41.5959 27 41.2423 27 40.8281L26.9934 30.1716C26.9928 30.1043 27.0091 30.0414 27.0424 29.9829C27.0757 29.9244 27.1213 29.8782 27.1795 29.8443C27.2376 29.8104 27.3003 29.7933 27.3676 29.7932C27.4349 29.793 27.4977 29.8098 27.5559 29.8434L36.78 35.1872C37.1276 35.3871 37.4949 35.435 37.8821 35.3306C38.2692 35.2263 38.5628 35.0003 38.7628 34.6528L40.3069 31.9725C40.5073 31.6258 40.5553 31.2592 40.4511 30.8726C40.3468 30.486 40.1209 30.1933 39.7734 29.9944L30.54 24.6431C30.4165 24.5707 30.3548 24.4629 30.3548 24.3197C30.3548 24.1765 30.4165 24.0687 30.54 23.9962L39.7734 18.645C40.1191 18.4444 40.3438 18.1511 40.4476 17.7652C40.5515 17.3793 40.5042 17.0129 40.3059 16.6659Z" stroke="#A82EDE" stroke-width="3" stroke-linejoin="round"/>
</svg>
