<svg width="34" height="43" viewBox="0 0 34 43" fill="none" xmlns="http://www.w3.org/2000/svg">
<path d="M32 18.0703V36.3281C32 37.5708 31.5607 38.6314 30.682 39.5101C29.8033 40.3888 28.7426 40.8281 27.5 40.8281H6.5C5.25736 40.8281 4.1967 40.3888 3.31802 39.5101C2.43934 38.6314 2 37.5708 2 36.3281V6.32812C2 5.08548 2.43934 4.02482 3.31802 3.14614C4.1967 2.26746 5.25736 1.82812 6.5 1.82812H15.7578C16.1555 1.82819 16.538 1.90431 16.9055 2.05651C17.2729 2.2087 17.5972 2.42539 17.8784 2.70656L31.1216 15.9497C31.4027 16.2309 31.6194 16.5553 31.7716 16.9227C31.9238 17.2901 31.9999 17.6726 32 18.0703Z" stroke="#A82EDE" stroke-width="3" stroke-linejoin="round"/>
</svg>
