<svg width="48" height="49" viewBox="0 0 48 49" fill="none" xmlns="http://www.w3.org/2000/svg">
<path d="M4.5 12.3281C4.5 9.84284 6.51472 7.82812 9 7.82812H39C41.4853 7.82812 43.5 9.84284 43.5 12.3281V39.3281C43.5 41.8134 41.4853 43.8281 39 43.8281H9C6.51472 43.8281 4.5 41.8134 4.5 39.3281V12.3281Z" stroke="#A82EDE" stroke-width="3" stroke-linejoin="round"/>
<circle cx="27.75" cy="22.0781" r="2.25" fill="#A82EDE"/>
<circle cx="35.25" cy="22.0781" r="2.25" fill="#A82EDE"/>
<circle cx="27.75" cy="29.5781" r="2.25" fill="#A82EDE"/>
<circle cx="35.25" cy="29.5781" r="2.25" fill="#A82EDE"/>
<circle cx="12.75" cy="29.5781" r="2.25" fill="#A82EDE"/>
<circle cx="20.25" cy="29.5781" r="2.25" fill="#A82EDE"/>
<circle cx="12.75" cy="37.0781" r="2.25" fill="#A82EDE"/>
<circle cx="20.25" cy="37.0781" r="2.25" fill="#A82EDE"/>
<circle cx="27.75" cy="37.0781" r="2.25" fill="#A82EDE"/>
<path d="M12 4.82812V7.82812M36 4.82812V7.82812" stroke="#A82EDE" stroke-width="3" stroke-linecap="round" stroke-linejoin="round"/>
<path d="M43.5 15.3281H4.5" stroke="#A82EDE" stroke-width="3" stroke-linejoin="round"/>
</svg>
