<svg width="183" height="68" viewBox="0 0 183 68" fill="none" xmlns="http://www.w3.org/2000/svg">
<path d="M12.0781 0C5.45071 0 0.078125 5.37258 0.078125 12V56C0.078125 62.6274 5.45071 68 12.0781 68H170.25C176.877 68 182.25 62.6274 182.25 56V12C182.25 5.37258 176.877 0 170.25 0H12.0781Z" fill="black"/>
<path d="M39.3265 32.9828L28.9812 22.6094L42.1437 30.1656L39.3265 32.9828ZM26.2812 22C25.6719 22.3188 25.264 22.9 25.264 23.6547V44.3406C25.264 45.0953 25.6719 45.6766 26.2812 45.9953L38.3094 33.9953L26.2812 22ZM46.2125 32.575L43.4515 30.9766L40.3719 34L43.4515 37.0234L46.2687 35.425C47.1125 34.7547 47.1125 33.2453 46.2125 32.575ZM28.9812 45.3906L42.1437 37.8344L39.3265 35.0172L28.9812 45.3906Z" fill="white"/>
<path d="M63.1006 18C63.0068 17.7129 62.8838 17.4551 62.7314 17.2266C62.5791 16.998 62.3984 16.8027 62.1895 16.6406C61.9824 16.4785 61.7461 16.3555 61.4805 16.2715C61.2168 16.1855 60.9277 16.1426 60.6133 16.1426C60.0957 16.1426 59.625 16.2764 59.2012 16.5439C58.7773 16.8096 58.4404 17.2031 58.1904 17.7246C57.9404 18.2441 57.8154 18.8818 57.8154 19.6377C57.8154 20.3916 57.9414 21.0293 58.1934 21.5508C58.4473 22.0703 58.79 22.4639 59.2217 22.7314C59.6553 22.9971 60.1416 23.1299 60.6807 23.1299C61.1807 23.1299 61.6211 23.0234 62.002 22.8105C62.3848 22.5957 62.6836 22.292 62.8984 21.8994C63.1133 21.5049 63.2207 21.04 63.2207 20.5049L63.543 20.5752H60.918V19.6377H64.2432V20.5752C64.2432 21.2939 64.0898 21.9189 63.7832 22.4502C63.4785 22.9814 63.0586 23.3926 62.5234 23.6836C61.9883 23.9746 61.374 24.1201 60.6807 24.1201C59.9072 24.1201 59.2285 23.9385 58.6445 23.5752C58.0605 23.21 57.6055 22.6924 57.2793 22.0225C56.9551 21.3525 56.793 20.5576 56.793 19.6377C56.793 18.9463 56.8857 18.3242 57.0713 17.7715C57.2588 17.2187 57.5225 16.748 57.8623 16.3594C58.2041 15.9707 58.6074 15.6729 59.0723 15.4658C59.5391 15.2568 60.0527 15.1523 60.6133 15.1523C61.0723 15.1523 61.501 15.2217 61.8994 15.3604C62.2998 15.4971 62.6562 15.6914 62.9688 15.9434C63.2832 16.1953 63.5459 16.4951 63.7568 16.8428C63.9678 17.1904 64.1123 17.5762 64.1904 18H63.1006ZM68.6577 24.1377C68.0269 24.1377 67.4829 23.998 67.0259 23.7188C66.5708 23.4375 66.2202 23.0449 65.9741 22.541C65.728 22.0371 65.605 21.4492 65.605 20.7773C65.605 20.1074 65.728 19.5166 65.9741 19.0049C66.2202 18.4912 66.564 18.0908 67.0054 17.8037C67.4468 17.5146 67.9634 17.3701 68.5552 17.3701C68.897 17.3701 69.2339 17.4268 69.5659 17.54C69.8979 17.6533 70.1997 17.8369 70.4712 18.0908C70.7446 18.3447 70.9624 18.6807 71.1245 19.0986C71.2866 19.5166 71.3677 20.0313 71.3677 20.6426V21.0674H66.3228V20.2002H70.3452C70.3452 19.8291 70.272 19.499 70.1255 19.21C69.979 18.9209 69.771 18.6924 69.5015 18.5244C69.2339 18.3564 68.9185 18.2725 68.5552 18.2725C68.1548 18.2725 67.8091 18.3711 67.5181 18.5684C67.2271 18.7656 67.0034 19.0225 66.8472 19.3389C66.6909 19.6533 66.6128 19.9912 66.6128 20.3525V20.9326C66.6128 21.4268 66.6987 21.8447 66.8706 22.1865C67.0425 22.5283 67.2817 22.7881 67.5884 22.9658C67.895 23.1436 68.2515 23.2324 68.6577 23.2324C68.9214 23.2324 69.1606 23.1953 69.3755 23.1211C69.5903 23.0449 69.7759 22.9307 69.9321 22.7783C70.0884 22.626 70.2085 22.4365 70.2925 22.21L71.2651 22.4824C71.1636 22.8125 70.9917 23.1016 70.7495 23.3496C70.5073 23.5977 70.2085 23.791 69.853 23.9297C69.4995 24.0684 69.1011 24.1377 68.6577 24.1377ZM75.7487 17.4551V18.3076H72.3561V17.4551H75.7487ZM73.3434 15.8877H74.3513V22.125C74.3513 22.4082 74.3932 22.6201 74.4772 22.7607C74.5612 22.9014 74.6686 22.9951 74.7995 23.042C74.9323 23.0889 75.072 23.1123 75.2184 23.1123C75.3298 23.1123 75.4206 23.1064 75.4909 23.0947C75.5632 23.0811 75.6208 23.0703 75.6638 23.0625L75.8688 23.9648C75.8005 23.9902 75.7048 24.0166 75.5817 24.0439C75.4606 24.0713 75.3063 24.085 75.1188 24.085C74.8337 24.085 74.5554 24.0244 74.2839 23.9033C74.0124 23.7803 73.7878 23.5938 73.61 23.3438C73.4323 23.0937 73.3434 22.7783 73.3434 22.3975V15.8877ZM80.6395 24V17.4551H81.6444V24H80.6395ZM81.1522 16.3623C80.9549 16.3623 80.786 16.2959 80.6454 16.1631C80.5047 16.0303 80.4344 15.8701 80.4344 15.6826C80.4344 15.4951 80.5047 15.335 80.6454 15.2021C80.786 15.0674 80.9549 15 81.1522 15C81.3475 15 81.5155 15.0674 81.6561 15.2021C81.7967 15.335 81.867 15.4951 81.867 15.6826C81.867 15.8701 81.7967 16.0303 81.6561 16.1631C81.5155 16.2959 81.3475 16.3623 81.1522 16.3623ZM86.3337 17.4551V18.3076H82.9411V17.4551H86.3337ZM83.9284 15.8877H84.9362V22.125C84.9362 22.4082 84.9782 22.6201 85.0622 22.7607C85.1462 22.9014 85.2536 22.9951 85.3844 23.042C85.5173 23.0889 85.6569 23.1123 85.8034 23.1123C85.9147 23.1123 86.0055 23.1064 86.0759 23.0947C86.1481 23.0811 86.2057 23.0703 86.2487 23.0625L86.4538 23.9648C86.3854 23.9902 86.2897 24.0166 86.1667 24.0439C86.0456 24.0713 85.8913 24.085 85.7038 24.085C85.4186 24.085 85.1403 24.0244 84.8688 23.9033C84.5973 23.7803 84.3727 23.5938 84.195 23.3438C84.0173 23.0937 83.9284 22.7783 83.9284 22.3975V15.8877ZM93.8846 24.1377C93.2928 24.1377 92.7742 23.9971 92.3289 23.7158C91.8856 23.4346 91.5389 23.041 91.2889 22.5352C91.0408 22.0293 90.9168 21.4385 90.9168 20.7627C90.9168 20.0791 91.0408 19.4834 91.2889 18.9756C91.5389 18.4678 91.8856 18.0732 92.3289 17.792C92.7742 17.5107 93.2928 17.3701 93.8846 17.3701C94.4744 17.3701 94.992 17.5107 95.4373 17.792C95.8826 18.0732 96.2293 18.4678 96.4774 18.9756C96.7254 19.4834 96.8494 20.0791 96.8494 20.7627C96.8494 21.4385 96.7254 22.0293 96.4774 22.5352C96.2293 23.041 95.8826 23.4346 95.4373 23.7158C94.992 23.9971 94.4744 24.1377 93.8846 24.1377ZM93.8846 23.2324C94.3338 23.2324 94.703 23.1182 94.992 22.8896C95.2811 22.6592 95.4949 22.3564 95.6336 21.9814C95.7742 21.6064 95.8446 21.2002 95.8446 20.7627C95.8446 20.3252 95.7742 19.918 95.6336 19.541C95.4949 19.1621 95.2811 18.8564 94.992 18.624C94.703 18.3896 94.3338 18.2725 93.8846 18.2725C93.4354 18.2725 93.0653 18.3896 92.7742 18.624C92.4852 18.8564 92.2713 19.1621 92.1326 19.541C91.994 19.918 91.9246 20.3252 91.9246 20.7627C91.9246 21.2002 91.994 21.6064 92.1326 21.9814C92.2713 22.3564 92.4852 22.6592 92.7742 22.8896C93.0653 23.1182 93.4354 23.2324 93.8846 23.2324ZM99.3882 20.0625V24H98.3833V17.4551H99.356V18.4775H99.441C99.5933 18.1455 99.8257 17.8779 100.138 17.6748C100.451 17.4717 100.855 17.3701 101.351 17.3701C101.793 17.3701 102.179 17.46 102.511 17.6396C102.845 17.8193 103.104 18.0918 103.288 18.457C103.473 18.8223 103.566 19.2832 103.566 19.8398V24H102.561V19.9102C102.561 19.3945 102.427 18.9932 102.16 18.7061C101.892 18.417 101.526 18.2725 101.061 18.2725C100.739 18.2725 100.452 18.3428 100.2 18.4834C99.9498 18.6221 99.7515 18.8252 99.605 19.0928C99.4605 19.3584 99.3882 19.6816 99.3882 20.0625Z" fill="white"/>
<path d="M66.3745 40.0439C66.2515 39.6572 66.0859 39.3101 65.8779 39.0024C65.6729 38.6919 65.4268 38.4268 65.1396 38.207C64.8555 37.9873 64.5317 37.8203 64.1685 37.7061C63.8052 37.5918 63.4067 37.5347 62.9731 37.5347C62.2319 37.5347 61.5654 37.7236 60.9736 38.1016C60.3818 38.4795 59.9131 39.0347 59.5674 39.7671C59.2246 40.4966 59.0532 41.3901 59.0532 42.4478C59.0532 43.5083 59.2261 44.4062 59.5718 45.1416C59.9175 45.874 60.3906 46.4292 60.9912 46.8071C61.5918 47.1851 62.2773 47.374 63.0479 47.374C63.7568 47.374 64.3765 47.2305 64.9067 46.9434C65.437 46.6533 65.8486 46.2432 66.1416 45.7129C66.4346 45.1826 66.5811 44.5571 66.5811 43.8364L67.0908 43.9331H63.3467V42.3027H68.4927V43.7881C68.4927 44.8896 68.2583 45.8447 67.7896 46.6533C67.3237 47.459 66.6807 48.0815 65.8604 48.521C65.043 48.9604 64.104 49.1802 63.0435 49.1802C61.8599 49.1802 60.8213 48.9077 59.9277 48.3628C59.0371 47.8179 58.3428 47.043 57.8447 46.0381C57.3467 45.0332 57.0977 43.8408 57.0977 42.4609C57.0977 41.415 57.2412 40.4775 57.5283 39.6484C57.8184 38.8164 58.2271 38.1104 58.7544 37.5303C59.2817 36.9473 59.9014 36.502 60.6133 36.1943C61.3281 35.8838 62.1089 35.7285 62.9556 35.7285C63.6646 35.7285 64.3252 35.834 64.9375 36.0449C65.5498 36.2529 66.0947 36.5488 66.5723 36.9326C67.0527 37.3135 67.4497 37.7676 67.7632 38.2949C68.0796 38.8223 68.292 39.4053 68.4004 40.0439H66.3745ZM74.9773 49.1978C74.0574 49.1978 73.2547 48.9868 72.5691 48.5649C71.8836 48.1431 71.3504 47.5527 70.9695 46.7939C70.5916 46.0352 70.4026 45.1489 70.4026 44.1353C70.4026 43.1157 70.5916 42.2251 70.9695 41.4634C71.3504 40.7017 71.8836 40.1099 72.5691 39.688C73.2547 39.2661 74.0574 39.0552 74.9773 39.0552C75.9002 39.0552 76.7044 39.2661 77.3899 39.688C78.0755 40.1099 78.6072 40.7017 78.9851 41.4634C79.366 42.2251 79.5564 43.1157 79.5564 44.1353C79.5564 45.1489 79.366 46.0352 78.9851 46.7939C78.6072 47.5527 78.0755 48.1431 77.3899 48.5649C76.7044 48.9868 75.9002 49.1978 74.9773 49.1978ZM74.9861 47.5938C75.5838 47.5938 76.0774 47.4355 76.4671 47.1191C76.8596 46.8027 77.1511 46.3823 77.3416 45.8579C77.532 45.3335 77.6272 44.7578 77.6272 44.1309C77.6272 43.5039 77.532 42.9268 77.3416 42.3994C77.1511 41.8721 76.8596 41.4487 76.4671 41.1294C76.0774 40.8101 75.5838 40.6504 74.9861 40.6504C74.3826 40.6504 73.8845 40.8101 73.492 41.1294C73.0994 41.4487 72.8079 41.8721 72.6174 42.3994C72.427 42.9268 72.3318 43.5039 72.3318 44.1309C72.3318 44.7578 72.427 45.3335 72.6174 45.8579C72.8079 46.3823 73.0994 46.8027 73.492 47.1191C73.8845 47.4355 74.3826 47.5938 74.9861 47.5938ZM85.8181 49.1978C84.8982 49.1978 84.0955 48.9868 83.4099 48.5649C82.7244 48.1431 82.1912 47.5527 81.8103 46.7939C81.4324 46.0352 81.2434 45.1489 81.2434 44.1353C81.2434 43.1157 81.4324 42.2251 81.8103 41.4634C82.1912 40.7017 82.7244 40.1099 83.4099 39.688C84.0955 39.2661 84.8982 39.0552 85.8181 39.0552C86.741 39.0552 87.5452 39.2661 88.2307 39.688C88.9163 40.1099 89.448 40.7017 89.826 41.4634C90.2068 42.2251 90.3972 43.1157 90.3972 44.1353C90.3972 45.1489 90.2068 46.0352 89.826 46.7939C89.448 47.5527 88.9163 48.1431 88.2307 48.5649C87.5452 48.9868 86.741 49.1978 85.8181 49.1978ZM85.8269 47.5938C86.4246 47.5938 86.9182 47.4355 87.3079 47.1191C87.7005 46.8027 87.992 46.3823 88.1824 45.8579C88.3728 45.3335 88.468 44.7578 88.468 44.1309C88.468 43.5039 88.3728 42.9268 88.1824 42.3994C87.992 41.8721 87.7005 41.4487 87.3079 41.1294C86.9182 40.8101 86.4246 40.6504 85.8269 40.6504C85.2234 40.6504 84.7254 40.8101 84.3328 41.1294C83.9402 41.4487 83.6487 41.8721 83.4583 42.3994C83.2679 42.9268 83.1726 43.5039 83.1726 44.1309C83.1726 44.7578 83.2679 45.3335 83.4583 45.8579C83.6487 46.3823 83.9402 46.8027 84.3328 47.1191C84.7254 47.4355 85.2234 47.5938 85.8269 47.5938ZM96.6414 52.8848C95.8621 52.8848 95.1927 52.7822 94.6331 52.5771C94.0735 52.375 93.615 52.104 93.2576 51.7642C92.9031 51.4272 92.6395 51.0596 92.4666 50.6611L94.1102 49.9888C94.2244 50.1733 94.3782 50.3711 94.5716 50.582C94.7679 50.793 95.033 50.9731 95.367 51.1226C95.701 51.272 96.1316 51.3467 96.659 51.3467C97.3855 51.3467 97.9847 51.1709 98.4563 50.8193C98.931 50.4678 99.1683 49.9067 99.1683 49.1362V47.2114H99.0452C98.931 47.4194 98.7654 47.6523 98.5486 47.9102C98.3348 48.165 98.0403 48.3862 97.6653 48.5737C97.2903 48.7583 96.8025 48.8506 96.202 48.8506C95.4285 48.8506 94.7312 48.6689 94.1102 48.3057C93.4891 47.9395 92.9969 47.4004 92.6336 46.6885C92.2732 45.9736 92.0931 45.0947 92.0931 44.0518C92.0931 43.0088 92.2718 42.1138 92.6292 41.3667C92.9866 40.6196 93.4759 40.0483 94.097 39.6528C94.7181 39.2544 95.4241 39.0552 96.2151 39.0552C96.8245 39.0552 97.3167 39.1562 97.6917 39.3584C98.0667 39.5605 98.3597 39.7964 98.5706 40.0659C98.7815 40.3325 98.9441 40.5684 99.0584 40.7734H99.199V39.1826H101.071V49.2197C101.071 50.0605 100.875 50.7505 100.482 51.2896C100.093 51.8315 99.5638 52.2329 98.8958 52.4937C98.2278 52.7544 97.4764 52.8848 96.6414 52.8848ZM96.6238 47.2686C97.1746 47.2686 97.639 47.1396 98.0169 46.8818C98.3978 46.624 98.6878 46.2534 98.887 45.77C99.0862 45.2837 99.1858 44.7036 99.1858 44.0298C99.1858 43.3677 99.0877 42.7861 98.8914 42.2852C98.698 41.7813 98.4109 41.3887 98.0301 41.1074C97.6492 40.8232 97.1805 40.6812 96.6238 40.6812C96.0496 40.6812 95.5691 40.8291 95.1824 41.125C94.7986 41.4209 94.5101 41.8223 94.3167 42.3291C94.1233 42.833 94.0267 43.3999 94.0267 44.0298C94.0267 44.6714 94.1248 45.2354 94.3211 45.7217C94.5174 46.208 94.8074 46.5874 95.1912 46.8599C95.5779 47.1323 96.0555 47.2686 96.6238 47.2686ZM105.545 35.9087V49H103.633V35.9087H105.545ZM112.35 49.1978C111.383 49.1978 110.55 48.9897 109.85 48.5737C109.152 48.1577 108.615 47.5718 108.237 46.8159C107.862 46.0601 107.674 45.1738 107.674 44.1572C107.674 43.1494 107.862 42.2632 108.237 41.4985C108.615 40.731 109.144 40.1318 109.823 39.7012C110.503 39.2705 111.298 39.0552 112.21 39.0552C112.766 39.0552 113.304 39.146 113.822 39.3276C114.344 39.5093 114.81 39.7964 115.22 40.189C115.633 40.5815 115.96 41.0913 116.2 41.7183C116.44 42.3423 116.56 43.0996 116.56 43.9902V44.6626H108.755V43.23H114.684C114.684 42.7319 114.581 42.2881 114.376 41.8984C114.174 41.5059 113.888 41.1968 113.519 40.9712C113.153 40.7456 112.722 40.6328 112.227 40.6328C111.688 40.6328 111.219 40.7646 110.821 41.0283C110.425 41.2891 110.119 41.6304 109.902 42.0522C109.686 42.4712 109.577 42.9253 109.577 43.4146V44.5308C109.577 45.187 109.693 45.7451 109.924 46.2051C110.159 46.665 110.484 47.0166 110.9 47.2598C111.319 47.5 111.807 47.6201 112.363 47.6201C112.73 47.6201 113.061 47.5688 113.356 47.4663C113.655 47.3608 113.913 47.2041 114.13 46.9961C114.347 46.7881 114.514 46.5288 114.631 46.2183L116.437 46.5435C116.294 47.0767 116.036 47.5425 115.664 47.9409C115.292 48.3394 114.824 48.6484 114.262 48.8682C113.699 49.0879 113.062 49.1978 112.35 49.1978ZM123.608 49V35.9087H128.275C129.292 35.9087 130.134 36.0947 130.802 36.4668C131.473 36.8389 131.974 37.3457 132.305 37.9873C132.639 38.626 132.806 39.3467 132.806 40.1494C132.806 40.9521 132.639 41.6743 132.305 42.3159C131.974 42.9575 131.472 43.4658 130.798 43.8408C130.127 44.2129 129.285 44.3989 128.271 44.3989H125.059V42.7202H128.086C128.734 42.7202 129.257 42.6089 129.655 42.3862C130.057 42.1606 130.351 41.8545 130.539 41.4678C130.726 41.0811 130.82 40.6416 130.82 40.1494C130.82 39.6543 130.726 39.2148 130.539 38.8311C130.351 38.4473 130.055 38.147 129.651 37.9302C129.25 37.7104 128.722 37.6006 128.069 37.6006H125.586V49H123.608ZM136.872 35.9087V49H134.96V35.9087H136.872ZM142.302 49.2153C141.678 49.2153 141.115 49.0996 140.614 48.8682C140.113 48.6367 139.715 48.2998 139.419 47.8574C139.126 47.4121 138.98 46.8687 138.98 46.2271C138.98 45.6704 139.087 45.2134 139.3 44.856C139.514 44.4985 139.803 44.2158 140.166 44.0078C140.529 43.7969 140.934 43.6387 141.379 43.5332C141.827 43.4277 142.284 43.3472 142.75 43.2915C143.336 43.2241 143.812 43.1685 144.178 43.1245C144.545 43.0776 144.811 43.0044 144.978 42.9048C145.145 42.8022 145.229 42.6353 145.229 42.4038V42.3555C145.229 41.8018 145.072 41.3711 144.758 41.0635C144.445 40.7559 143.981 40.6021 143.365 40.6021C142.721 40.6021 142.214 40.7441 141.845 41.0283C141.476 41.3096 141.219 41.623 141.076 41.9688L139.283 41.5601C139.497 40.9624 139.809 40.4805 140.219 40.1143C140.629 39.7451 141.102 39.4771 141.638 39.3101C142.177 39.1401 142.743 39.0552 143.335 39.0552C143.727 39.0552 144.143 39.1021 144.583 39.1958C145.025 39.2866 145.44 39.4536 145.826 39.6968C146.213 39.937 146.529 40.2827 146.775 40.7339C147.022 41.1821 147.145 41.7637 147.145 42.4785V49H145.277V47.6597H145.198C145.078 47.9028 144.895 48.1445 144.649 48.3848C144.402 48.625 144.085 48.8242 143.695 48.9824C143.308 49.1377 142.844 49.2153 142.302 49.2153ZM142.715 47.686C143.245 47.686 143.698 47.582 144.073 47.374C144.451 47.1631 144.738 46.8892 144.934 46.5522C145.133 46.2124 145.233 45.8491 145.233 45.4624V44.1924C145.166 44.2627 145.035 44.3257 144.842 44.3813C144.649 44.437 144.427 44.4868 144.178 44.5308C143.932 44.5718 143.692 44.6084 143.458 44.6406C143.223 44.6699 143.027 44.6948 142.869 44.7153C142.5 44.7651 142.161 44.8442 141.854 44.9526C141.549 45.061 141.306 45.2192 141.124 45.4272C140.942 45.6353 140.852 45.9092 140.852 46.249C140.852 46.7236 141.026 47.0825 141.375 47.3257C141.726 47.5659 142.173 47.686 142.715 47.686ZM150.538 52.6826C150.251 52.6826 149.99 52.6592 149.756 52.6123C149.524 52.5684 149.35 52.5215 149.233 52.4717L149.694 50.9028C150.046 50.9995 150.358 51.0405 150.63 51.0259C150.903 51.0112 151.143 50.9072 151.351 50.7139C151.562 50.5234 151.749 50.2114 151.913 49.7778L152.151 49.1274L148.556 39.1826H150.604L153.087 46.8027H153.192L155.68 39.1826H157.732L153.68 50.3096C153.495 50.8223 153.258 51.2559 152.968 51.6104C152.678 51.9648 152.332 52.2314 151.931 52.4102C151.53 52.5918 151.065 52.6826 150.538 52.6826Z" fill="white"/>
</svg>
