<svg width="49" height="61" viewBox="0 0 49 61" fill="none" xmlns="http://www.w3.org/2000/svg">
<path d="M43.437 59.3874C43.437 59.3734 43.443 59.3544 43.447 59.3384H43.782V60.4704C43.7467 60.4793 43.7104 60.484 43.674 60.4844C43.392 60.4844 43.264 60.1624 43.437 59.3874ZM44.164 59.3384H45.074C44.819 59.6954 44.5123 60.0125 44.164 60.2794V59.3384ZM44.164 58.9564V57.8094H45.312V58.9564H44.164ZM43.523 58.9564C43.581 58.6504 43.648 58.2654 43.723 57.8094H43.786V58.9564H43.523ZM45.694 57.8094H45.958C45.877 57.9984 45.788 58.1824 45.694 58.3594V57.8094ZM44.163 57.4264V56.2784H45.311V57.4264H44.163ZM43.777 57.4264C43.777 57.4174 43.777 57.4084 43.777 57.3994V57.4264ZM45.693 57.4264V56.2784H46.521C46.381 56.6584 46.259 56.9864 46.169 57.2574C46.15 57.3144 46.13 57.3694 46.109 57.4254L45.693 57.4264ZM44.163 55.8964V54.7494H45.311V55.8974L44.163 55.8964ZM45.693 55.8964V54.7494H46.841V55.4074C46.779 55.5794 46.721 55.7414 46.663 55.8964H45.693ZM45.693 54.3664V53.2154H46.84V54.3624L45.693 54.3664ZM44.174 54.3664C44.215 53.9964 44.256 53.6124 44.295 53.2194H45.31V54.3664H44.174ZM47.224 53.2154H47.565C47.4503 53.598 47.3367 53.959 47.224 54.2984V53.2154ZM47.224 52.8324V51.6894H47.987C47.8857 52.0894 47.7823 52.4717 47.677 52.8364L47.224 52.8324ZM45.694 52.8324V51.6894H46.841V52.8364L45.694 52.8324ZM44.335 52.8324C44.371 52.4594 44.405 52.0744 44.435 51.6854H45.309V52.8324H44.335ZM45.694 51.3024V50.1594H46.841V51.3064L45.694 51.3024ZM47.224 51.3024V50.1594H48.336C48.254 50.5594 48.1687 50.9417 48.08 51.3064L47.224 51.3024ZM44.469 51.3024C44.4997 50.925 44.5277 50.5427 44.553 50.1554H45.311V51.3024H44.469ZM28.864 50.5944V50.1544H30.012V50.6214C29.8653 50.632 29.72 50.6374 29.576 50.6374C29.3384 50.6374 29.0999 50.623 28.864 50.5944ZM30.395 50.1544H31.542V50.3144C31.1681 50.4363 30.7844 50.5253 30.395 50.5804V50.1544ZM27.335 50.1984V50.1544H28.483V50.5354C28.0904 50.4607 27.7059 50.3472 27.335 50.1984ZM31.925 50.1544H31.988C31.967 50.1634 31.946 50.1704 31.925 50.1784V50.1544ZM47.225 49.7724V48.6294H48.372V49.7774L47.225 49.7724ZM45.695 49.7724V48.6294H46.842V49.7774L45.695 49.7724ZM30.395 49.7724V48.6294H31.542V49.7774L30.395 49.7724ZM28.864 49.7724V48.6294H30.012V49.7774L28.864 49.7724ZM27.334 49.7724V48.6294H28.482V49.7774L27.334 49.7724ZM44.578 49.7724C44.6027 49.3924 44.6243 49.0097 44.643 48.6244H45.312V49.7724H44.578ZM31.925 49.7724V48.6294H33.072V49.6354C32.987 49.6844 32.902 49.7354 32.818 49.7774L31.925 49.7724ZM26.446 49.7724C26.2287 49.6484 26.0153 49.5131 25.806 49.3664V48.6254H26.953V49.7734L26.446 49.7724ZM33.455 48.6244H34.59C34.2252 48.9033 33.8464 49.1633 33.455 49.4034V48.6244ZM24.878 48.6244H25.422V49.0814C25.238 48.9364 25.057 48.7814 24.878 48.6244ZM47.224 48.2424V47.0994H48.371V48.2464L47.224 48.2424ZM45.694 48.2424V47.0994H46.841V48.2464L45.694 48.2424ZM33.454 48.2424V47.0994H34.6V48.2464L33.454 48.2424ZM31.924 48.2424V47.0994H33.071V48.2464L31.924 48.2424ZM30.394 48.2424V47.0994H31.541V48.2464L30.394 48.2424ZM28.863 48.2424V47.0994H30.011V48.2464L28.863 48.2424ZM27.333 48.2424V47.0994H28.481V48.2464L27.333 48.2424ZM25.803 48.2424V47.0994H26.95V48.2464L25.803 48.2424ZM44.658 48.2424C44.674 47.8614 44.689 47.4784 44.699 47.0954H45.31V48.2424H44.658ZM34.982 48.2424V47.0994H36.13V47.1844C35.7983 47.564 35.4393 47.9189 35.056 48.2464L34.982 48.2424ZM24.477 48.2424C24.408 48.1734 24.34 48.1054 24.277 48.0354V47.0954H25.424V48.2424H24.477ZM23.458 47.0954H23.891V47.6154C23.745 47.4474 23.6 47.2754 23.459 47.0964L23.458 47.0954ZM47.224 46.7154V45.5694H48.371V46.7154H47.224ZM45.694 46.7154V45.5694H46.841V46.7154H45.694ZM44.71 46.7154C44.718 46.3324 44.723 45.9504 44.725 45.5684H45.311V46.7154H44.71ZM36.51 46.7154V45.5694H37.249C37.0342 45.9707 36.7878 46.3542 36.512 46.7164L36.51 46.7154ZM34.98 46.7154V45.5694H36.128V46.7154H34.98ZM33.451 46.7154V45.5694H34.6V46.7154H33.451ZM31.921 46.7154V45.5694H33.068V46.7154H31.921ZM30.391 46.7154V45.5694H31.538V46.7154H30.391ZM28.86 46.7154V45.5694H30.008V46.7154H28.86ZM27.33 46.7154V45.5694H28.478V46.7154H27.33ZM25.8 46.7154V45.5694H26.947V46.7154H25.8ZM24.27 46.7154V45.5694H25.418V46.7154H24.27ZM23.161 46.7154C23.018 46.5224 22.878 46.3224 22.74 46.1154V45.5644H23.888V46.7154H23.161ZM21.04 45.8874C20.8193 45.518 20.607 45.1354 20.403 44.7394H21.251V45.8874H21.04ZM47.22 45.1874V44.0394H48.367V45.1864L47.22 45.1874ZM45.69 45.1874V44.0394H46.837V45.1864L45.69 45.1874ZM34.98 45.1874V44.0394H36.128V45.1864L34.98 45.1874ZM33.451 45.1874V44.0394H34.6V45.1864L33.451 45.1874ZM31.921 45.1874V44.0394H33.068V45.1864L31.921 45.1874ZM30.391 45.1874V44.0394H31.538V45.1864L30.391 45.1874ZM28.86 45.1874V44.0394H30.008V45.1864L28.86 45.1874ZM27.33 45.1874V44.0394H28.478V45.1864L27.33 45.1874ZM25.8 45.1874V44.0394H26.947V45.1864L25.8 45.1874ZM24.27 45.1874V44.0394H25.418V45.1864L24.27 45.1874ZM22.74 45.1874V44.0394H23.888V45.1864L22.74 45.1874ZM44.723 45.1874C44.723 44.802 44.7177 44.4197 44.707 44.0404H45.307V45.1874H44.723ZM36.51 45.1874V44.0394H37.658V44.6824C37.592 44.8524 37.519 45.0194 37.441 45.1824L36.51 45.1874ZM17.859 44.2304C17.823 44.1584 17.788 44.0874 17.753 44.0154V43.0834H18.9V44.2304H17.859ZM47.221 43.6564V42.5094H48.368V43.6564H47.221ZM45.691 43.6564V42.5094H46.838V43.6564H45.691ZM36.511 43.6564V42.5094H37.659V43.6564H36.511ZM34.981 43.6564V42.5094H36.129V43.6564H34.981ZM33.452 43.6564V42.5094H34.6V43.6564H33.452ZM31.922 43.6564V42.5094H33.069V43.6564H31.922ZM30.392 43.6564V42.5094H31.539V43.6564H30.392ZM28.861 43.6564V42.5094H30.009V43.6564H28.861ZM27.331 43.6564V42.5094H28.479V43.6564H27.331ZM25.801 43.6564V42.5094H26.948V43.6564H25.801ZM24.271 43.6564V42.5094H25.418V43.6564H24.271ZM21.785 43.6564V42.5094H22.932V43.6564H21.785ZM44.698 43.6564C44.686 43.2697 44.669 42.8874 44.647 42.5094H45.309V43.6564H44.698ZM38.042 42.5094H38.188C38.1548 42.8117 38.106 43.1121 38.042 43.4094V42.5094ZM47.222 42.1264V40.9794H48.369V42.1274L47.222 42.1264ZM45.692 42.1264V40.9794H46.839V42.1274L45.692 42.1264ZM44.622 42.1264C44.595 41.7374 44.565 41.3534 44.522 40.9784H45.305V42.1264H44.622ZM38.042 42.1264V40.9794H38.235C38.253 41.362 38.249 41.7453 38.223 42.1274L38.042 42.1264ZM36.511 42.1264V40.9794H37.659V42.1274L36.511 42.1264ZM34.981 42.1264V40.9794H36.129V42.1274L34.981 42.1264ZM33.452 42.1264V40.9794H34.6V42.1274L33.452 42.1264ZM31.922 42.1264V40.9794H33.069V42.1274L31.922 42.1264ZM30.392 42.1264V40.9794H31.539V42.1274L30.392 42.1264ZM28.861 42.1264V40.9794H30.009V42.1274L28.861 42.1264ZM27.331 42.1264V40.9794H28.479V42.1274L27.331 42.1264ZM25.801 42.1264V40.9794H26.948V42.1274L25.801 42.1264ZM24.271 42.1264V40.9794H25.418V42.1274L24.271 42.1264ZM22.741 42.1264V40.9794H23.888V42.1274L22.741 42.1264ZM21.21 42.1264V40.9794H22.358V42.1274L21.21 42.1264ZM11.331 41.5524C11.2083 41.207 11.0917 40.858 10.981 40.5054V40.4054H12.128V41.5524H11.331ZM47.22 40.5964V39.4494H48.367V40.5974L47.22 40.5964ZM45.69 40.5964V39.4494H46.837V40.5974L45.69 40.5964ZM44.481 40.5964C44.435 40.2044 44.381 39.8194 44.324 39.4484H45.308V40.5964H44.481ZM38.041 40.5964V39.4494H38.059C38.127 39.8264 38.179 40.2104 38.21 40.5974L38.041 40.5964ZM36.51 40.5964V39.4494H37.658V40.5974L36.51 40.5964ZM34.98 40.5964V39.4494H36.128V40.5974L34.98 40.5964ZM33.451 40.5964V39.4494H34.6V40.5974L33.451 40.5964ZM31.921 40.5964V39.4494H33.068V40.5974L31.921 40.5964ZM30.391 40.5964V39.4494H31.538V40.5974L30.391 40.5964ZM28.86 40.5964V39.4494H30.008V40.5974L28.86 40.5964ZM27.33 40.5964V39.4494H28.478V40.5974L27.33 40.5964ZM25.8 40.5964V39.4494H26.947V40.5974L25.8 40.5964ZM24.27 40.5964V39.4494H25.417V40.5974L24.27 40.5964ZM22.74 40.5964V39.4494H23.887V40.5974L22.74 40.5964ZM19.613 40.5964V39.4494H20.761V40.5974L19.613 40.5964ZM16.03 40.5324V39.3854H17.177V40.5334L16.03 40.5324ZM47.22 39.0654V37.9154H48.367V39.0624L47.22 39.0654ZM45.69 39.0654V37.9154H46.837V39.0624L45.69 39.0654ZM36.51 39.0654V37.9154H37.658V39.0624L36.51 39.0654ZM34.98 39.0654V37.9154H36.128V39.0624L34.98 39.0654ZM33.451 39.0654V37.9154H34.6V39.0624L33.451 39.0654ZM31.921 39.0654V37.9154H33.068V39.0624L31.921 39.0654ZM30.391 39.0654V37.9154H31.538V39.0624L30.391 39.0654ZM28.86 39.0654V37.9154H30.008V39.0624L28.86 39.0654ZM27.33 39.0654V37.9154H28.478V39.0624L27.33 39.0654ZM25.8 39.0654V37.9154H26.947V39.0624L25.8 39.0654ZM24.27 39.0654V37.9154H25.417V39.0624L24.27 39.0654ZM22.74 39.0654V37.9154H23.887V39.0624L22.74 39.0654ZM21.209 39.0654V37.9154H22.357V39.0624L21.209 39.0654ZM44.254 39.0654C44.224 38.9014 44.1923 38.7401 44.159 38.5814V37.9154H45.307V39.0624L44.254 39.0654ZM12.287 37.9094C12.2277 37.5254 12.1763 37.143 12.133 36.7624H13.082V37.9094H12.287ZM47.225 37.5364V36.3894H48.372V37.5364H47.225ZM45.695 37.5364V36.3894H46.842V37.5364H45.695ZM44.164 37.5364V36.3894H45.312V37.5364H44.164ZM36.514 37.5364V36.3894H37.158C37.307 36.7574 37.449 37.1394 37.578 37.5364H36.514ZM34.984 37.5364V36.3894H36.132V37.5364H34.984ZM33.455 37.5364V36.3894H34.6V37.5364H33.455ZM31.925 37.5364V36.3894H33.072V37.5364H31.925ZM30.395 37.5364V36.3894H31.542V37.5364H30.395ZM28.864 37.5364V36.3894H30.012V37.5364H28.864ZM27.334 37.5364V36.3894H28.482V37.5364H27.334ZM25.804 37.5364V36.3894H26.951V37.5364H25.804ZM24.274 37.5364V36.3894H25.421V37.5364H24.274ZM22.744 37.5364V36.3894H23.891V37.5364H22.744ZM43.686 36.8434C43.63 36.6864 43.568 36.5364 43.506 36.3894H43.78V37.1354C43.75 37.0374 43.72 36.9374 43.686 36.8434ZM20.609 36.9154V35.7704H21.756V36.9154H20.609ZM8.526 36.6364C8.486 36.2504 8.45267 35.868 8.426 35.4894H9.519V36.6364H8.526ZM17.182 36.0624V34.9154H18.33V36.0624H17.182ZM43.333 36.0064C43.1428 35.6052 42.918 35.2214 42.661 34.8594H43.781V36.0064H43.333ZM36.514 36.0064V34.9724C36.677 35.2974 36.84 35.6434 36.998 36.0064H36.514ZM47.224 36.0064V34.8594H48.371V36.0064H47.224ZM45.694 36.0064V34.8594H46.841V36.0064H45.694ZM44.163 36.0064V34.8594H45.311V36.0064H44.163ZM34.983 36.0064V34.8594H36.131V36.0064H34.983ZM33.454 36.0064V34.8594H34.6V36.0064H33.454ZM31.924 36.0064V34.8594H33.071V36.0064H31.924ZM30.394 36.0064V34.8594H31.541V36.0064H30.394ZM28.863 36.0064V34.8594H30.011V36.0064H28.863ZM27.333 36.0064V34.8594H28.481V36.0064H27.333ZM24.273 36.0064V34.8594H25.42V36.0064H24.273ZM22.743 36.0064V34.8594H23.891V36.0064H22.743ZM19.109 35.4334V34.2854H20.256V35.4334H19.109ZM14.954 34.6524V33.5054H16.1V34.6524H14.954ZM47.223 34.4764V33.3294H48.077C48.177 33.6934 48.272 34.0764 48.354 34.4764H47.223ZM45.693 34.4764V33.3294H46.84V34.4764H45.693ZM44.162 34.4764V33.3294H45.31V34.4764H44.162ZM42.632 34.4764V33.3294H43.78V34.4764H42.632ZM34.982 34.4764V33.3294H35.6C35.767 33.5984 35.949 33.9064 36.136 34.2464V34.4764H34.982ZM33.453 34.4764V33.3294H34.6V34.4764H33.453ZM31.923 34.4764V33.3294H33.07V34.4764H31.923ZM30.393 34.4764V33.3294H31.54V34.4764H30.393ZM28.862 34.4764V33.3294H30.01V34.4764H28.862ZM27.332 34.4764V33.3294H28.48V34.4764H27.332ZM25.802 34.4764V33.3294H26.949V34.4764H25.802ZM24.272 34.4764V33.3294H25.419V34.4764H24.272ZM22.742 34.4764V33.3294H23.889V34.4764H22.742ZM20.786 34.4764V33.3294H21.934V34.4764H20.786ZM41.124 33.3294H42.249V34.3494C41.9156 33.9665 41.5374 33.6241 41.124 33.3294ZM5.654 34.2854C5.496 33.9094 5.34567 33.5267 5.203 33.1374H5.862V34.2854H5.654ZM18.154 33.1924V32.0444H19.3V33.1914L18.154 33.1924ZM47.224 32.9474V31.7994H47.542C47.696 32.1614 47.842 32.5394 47.969 32.9474H47.224ZM40.524 32.9474C40.2184 32.7752 39.9006 32.6258 39.573 32.5004V31.8004H40.72V32.9484L40.524 32.9474ZM34.983 32.9474V32.4014C35.083 32.5414 35.207 32.7244 35.353 32.9474H34.983ZM45.693 32.9474V31.7994H46.84V32.9474H45.693ZM44.162 32.9474V31.7994H45.31V32.9474H44.162ZM42.632 32.9474V31.7994H43.78V32.9474H42.632ZM41.102 32.9474V31.7994H42.249V32.9474H41.102ZM33.452 32.9474V31.7994H34.6V32.9474H33.452ZM31.922 32.9474V31.7994H33.069V32.9474H31.922ZM30.392 32.9474V31.7994H31.539V32.9474H30.392ZM28.861 32.9474V31.7994H30.009V32.9474H28.861ZM27.331 32.9474V31.7994H28.479V32.9474H27.331ZM25.801 32.9474V31.7994H26.948V32.9474H25.801ZM24.271 32.9474V31.7994H25.418V32.9474H24.271ZM22.741 32.9474V31.7994H23.888V32.9474H22.741ZM21.21 32.9474V31.7994H22.358V32.9474H21.21ZM13.56 32.6184V31.4714H14.708V32.6154L13.56 32.6184ZM38.04 32.0844V31.7994H39.187V32.3654C38.8116 32.2452 38.4284 32.1513 38.04 32.0844ZM34.979 31.7994H36.127V31.9494C35.7427 31.9594 35.3593 31.9928 34.979 32.0494V31.7994ZM36.509 31.9474V31.7994H37.657V32.0264C37.2762 31.9778 36.8929 31.9514 36.509 31.9474ZM44.159 31.4164V30.2694H45.307V31.4154L44.159 31.4164ZM42.629 31.4164V30.2694H43.777V31.4154L42.629 31.4164ZM41.099 31.4164V30.2694H42.246V31.4154L41.099 31.4164ZM39.569 31.4164V30.2694H40.716V31.4154L39.569 31.4164ZM38.039 31.4164V30.2694H39.186V31.4154L38.039 31.4164ZM36.508 31.4164V30.2694H37.656V31.4154L36.508 31.4164ZM34.978 31.4164V30.2694H36.126V31.4154L34.978 31.4164ZM33.449 31.4164V30.2694H34.6V31.4154L33.449 31.4164ZM31.919 31.4164V30.2694H33.066V31.4154L31.919 31.4164ZM30.389 31.4164V30.2694H31.536V31.4154L30.389 31.4164ZM28.858 31.4164V30.2694H30.006V31.4154L28.858 31.4164ZM27.328 31.4164V30.2694H28.476V31.4154L27.328 31.4164ZM25.798 31.4164V30.2694H26.945V31.4154L25.798 31.4164ZM24.268 31.4164V30.2694H25.415V31.4154L24.268 31.4164ZM22.738 31.4164V30.2694H23.885V31.4154L22.738 31.4164ZM20.252 31.4164V30.2694H21.4V31.4154L20.252 31.4164ZM47.218 31.4164V31.1054C47.2693 31.2067 47.32 31.3104 47.37 31.4164H47.218ZM45.688 31.4164V30.2694H46.741C46.772 30.3184 46.805 30.3644 46.835 30.4144V31.4144L45.688 31.4164ZM8.512 30.7484C8.43733 30.365 8.36667 29.9824 8.3 29.6004H9.035V30.7474L8.512 30.7484ZM17.182 30.2694V29.1224H18.33V30.2694H17.182ZM45.694 29.8864V28.9064C45.9838 29.2134 46.2512 29.5409 46.494 29.8864H45.694ZM44.164 29.8864V28.7394H45.312V29.8874L44.164 29.8864ZM42.634 29.8864V28.7394H43.782V29.8874L42.634 29.8864ZM41.104 29.8864V28.7394H42.251V29.8874L41.104 29.8864ZM39.574 29.8864V28.7394H40.721V29.8874L39.574 29.8864ZM38.044 29.8864V28.7394H39.191V29.8874L38.044 29.8864ZM36.513 29.8864V28.7394H37.661V29.8874L36.513 29.8864ZM34.983 29.8864V28.7394H36.131V29.8874L34.983 29.8864ZM33.454 29.8864V28.7394H34.6V29.8874L33.454 29.8864ZM31.924 29.8864V28.7394H33.071V29.8874L31.924 29.8864ZM30.394 29.8864V28.7394H31.541V29.8874L30.394 29.8864ZM28.863 29.8864V28.7394H30.011V29.8874L28.863 29.8864ZM27.333 29.8864V28.7394H28.481V29.8874L27.333 29.8864ZM25.803 29.8864V28.7394H26.95V29.8874L25.803 29.8864ZM24.273 29.8864V28.7394H25.42V29.8874L24.273 29.8864ZM21.213 29.8864V28.7394H22.361V29.8874L21.213 29.8864ZM14.955 29.8234C14.955 29.4474 14.965 29.0647 14.985 28.6754H16.1V29.8234H14.955ZM2.288 29.6954C2.19333 29.314 2.10567 28.9314 2.025 28.5474H2.472V29.6954H2.288ZM19.044 28.7814V27.6344H20.191V28.7814H19.044ZM9.88 28.5154V27.3724H11.028V28.5154H9.88ZM44.164 28.3524V27.6184C44.5025 27.8397 44.8246 28.085 45.128 28.3524H44.164ZM42.634 28.3524V27.2094H43.462C43.569 27.2654 43.676 27.3184 43.782 27.3794V28.3564L42.634 28.3524ZM41.104 28.3524V27.2094H42.251V28.3564L41.104 28.3524ZM39.574 28.3524V27.2094H40.722V28.3564L39.574 28.3524ZM38.044 28.3524V27.2094H39.191V28.3564L38.044 28.3524ZM36.513 28.3524V27.2094H37.661V28.3564L36.513 28.3524ZM34.983 28.3524V27.2094H36.131V28.3564L34.983 28.3524ZM33.454 28.3524V27.2094H34.6V28.3564L33.454 28.3524ZM31.924 28.3524V27.2094H33.071V28.3564L31.924 28.3524ZM30.394 28.3524V27.2094H31.541V28.3564L30.394 28.3524ZM28.863 28.3524V27.2094H30.011V28.3564L28.863 28.3524ZM27.333 28.3524V27.2094H28.481V28.3564L27.333 28.3524ZM25.803 28.3524V27.2094H26.95V28.3564L25.803 28.3524ZM24.273 28.3524V27.2094H25.42V28.3564L24.273 28.3524ZM22.743 28.3524V27.2094H23.89V28.3564L22.743 28.3524ZM20.787 28.3524V27.2094H21.935V28.3564L20.787 28.3524ZM12.987 27.7024V26.5604H14.135V27.7074L12.987 27.7024ZM33.451 26.8214V25.6794H34.6V26.8264L33.451 26.8214ZM31.921 26.8214V25.6794H33.068V26.8264L31.921 26.8214ZM30.391 26.8214V25.6794H31.538V26.8264L30.391 26.8214ZM28.86 26.8214V25.6794H30.008V26.8264L28.86 26.8214ZM27.33 26.8214V25.6794H28.478V26.8264L27.33 26.8214ZM25.8 26.8214V25.6794H26.947V26.8264L25.8 26.8214ZM24.27 26.8214V25.6794H25.417V26.8264L24.27 26.8214ZM22.315 26.8214V25.6794H23.462V26.8264L22.315 26.8214ZM41.099 26.8214V26.3314C41.4874 26.423 41.8704 26.5365 42.246 26.6714V26.8214H41.099ZM39.569 26.8214V26.0684C39.942 26.1094 40.326 26.1684 40.716 26.2454V26.8214H39.569ZM38.04 26.8214V25.9774C38.401 25.9774 38.787 25.9984 39.187 26.0324V26.8224L38.04 26.8214ZM36.509 26.8214V26.0154C36.843 25.9974 37.23 25.9824 37.657 25.9784V26.8224L36.509 26.8214ZM34.979 26.8214V25.6794H35.419C35.3668 25.7579 35.31 25.8334 35.249 25.9054C35.081 26.0904 35.44 26.0774 36.127 26.0394V26.8264L34.979 26.8214ZM42.629 26.8214V26.8154L42.648 26.8234L42.629 26.8214ZM19.106 26.5294V25.3874H20.253V26.5344L19.106 26.5294ZM16.515 25.5434C16.5543 25.1634 16.601 24.7807 16.655 24.3954H17.488V25.5434H16.515ZM33.449 25.2914V24.1494H34.6V25.2964L33.449 25.2914ZM31.919 25.2914V24.1494H33.066V25.2964L31.919 25.2914ZM30.389 25.2914V24.1494H31.536V25.2964L30.389 25.2914ZM28.858 25.2914V24.1494H30.006V25.2964L28.858 25.2914ZM27.328 25.2914V24.1494H28.476V25.2964L27.328 25.2914ZM25.798 25.2914V24.1494H26.945V25.2964L25.798 25.2914ZM22.738 25.2914V24.1494H23.885V25.2964L22.738 25.2914ZM20.782 25.2914V24.1494H21.93V25.2964L20.782 25.2914ZM34.977 25.2914V24.1494H36.125V24.4664C35.954 24.7904 35.797 25.0664 35.66 25.2974L34.977 25.2914ZM9.877 24.7174V23.5754H11.025V24.7224L9.877 24.7174ZM34.977 23.7614V22.6154H36.125V23.7624L34.977 23.7614ZM33.448 23.7614V22.6154H34.6V23.7624L33.448 23.7614ZM31.918 23.7614V22.6154H33.065V23.7624L31.918 23.7614ZM30.388 23.7614V22.6154H31.535V23.7624L30.388 23.7614ZM28.857 23.7614V22.6154H30.005V23.7624L28.857 23.7614ZM27.327 23.7614V22.6154H28.475V23.7624L27.327 23.7614ZM25.797 23.7614V22.6154H26.944V23.7624L25.797 23.7614ZM24.267 23.7614V22.6154H25.414V23.7624L24.267 23.7614ZM36.514 22.6154H37.006C36.8407 23.0027 36.6767 23.3644 36.514 23.7004V22.6154ZM17.58 23.5714V22.4284H18.728V23.5754L17.58 23.5714ZM14.454 23.5714C14.5287 23.1887 14.6097 22.8064 14.697 22.4244H14.969V23.5754L14.454 23.5714ZM1.36 23.5714C1.34 23.184 1.32867 22.8017 1.326 22.4244H2.472V23.5754L1.36 23.5714ZM22.32 23.3374V22.1944H23.467V23.3414L22.32 23.3374ZM36.514 22.2374V21.0894H37.6C37.46 21.4894 37.313 21.8704 37.163 22.2374H36.514ZM34.984 22.2374V21.0894H36.132V22.2374H34.984ZM33.455 22.2374V21.0894H34.6V22.2374H33.455ZM31.925 22.2374V21.0894H33.072V22.2374H31.925ZM30.395 22.2374V21.0894H31.542V22.2374H30.395ZM28.864 22.2374V21.0894H30.012V22.2374H28.864ZM27.334 22.2374V21.0894H28.482V22.2374H27.334ZM25.804 22.2374V21.0894H26.951V22.2374H25.804ZM24.274 22.2374V21.0894H25.421V22.2374H24.274ZM19.684 22.2374V21.0894H20.832V22.2374H19.684ZM5.914 22.0454V20.8984H7.062V22.0454H5.914ZM16.608 21.2804V20.1334H17.756V21.2804H16.608ZM36.514 20.7064V19.5594H37.662V20.7064H36.514ZM34.984 20.7064V19.5594H36.132V20.7064H34.984ZM33.455 20.7064V19.5594H34.6V20.7064H33.455ZM31.925 20.7064V19.5594H33.072V20.7064H31.925ZM30.395 20.7064V19.5594H31.542V20.7064H30.395ZM27.335 20.7064V19.5594H28.483V20.7064H27.335ZM25.805 20.7064V19.5594H26.952V20.7064H25.805ZM22.745 20.7064V19.5594H23.893V20.7064H22.745ZM0 20.5154C0.022 20.1374 0.051 19.755 0.087 19.3684H1.1V20.5154H0ZM11.56 19.9424V18.7944H12.707V19.9424H11.56ZM38.045 19.5594H38.086C38.073 19.6074 38.057 19.6594 38.045 19.7034V19.5594ZM9.013 19.3684C9.213 18.9754 9.413 18.5924 9.624 18.2214H10.082V19.3684H9.013ZM18.155 19.3684V18.2214H19.3V19.3684H18.155ZM38.045 19.1774V18.0294H38.437C38.366 18.4144 38.281 18.7974 38.185 19.1774H38.045ZM36.514 19.1774V18.0294H37.662V19.1774H36.514ZM34.984 19.1774V18.0294H36.132V19.1774H34.984ZM33.455 19.1774V18.0294H34.6V19.1774H33.455ZM31.925 19.1774V18.0294H33.072V19.1774H31.925ZM30.395 19.1774V18.0294H31.542V19.1774H30.395ZM28.864 19.1774V18.0294H30.012V19.1774H28.864ZM27.334 19.1774V18.0294H28.482V19.1774H27.334ZM24.274 19.1774V18.0294H25.421V19.1774H24.274ZM21.214 19.1774V18.0294H22.362V19.1774H21.214ZM4.384 18.9864V17.8384H5.532V18.9854L4.384 18.9864ZM38.044 17.6474V16.4994H38.636C38.608 16.8804 38.565 17.2634 38.504 17.6464L38.044 17.6474ZM36.513 17.6474V16.4994H37.661V17.6464L36.513 17.6474ZM34.983 17.6474V16.4994H36.131V17.6464L34.983 17.6474ZM33.454 17.6474V16.4994H34.6V17.6464L33.454 17.6474ZM31.924 17.6474V16.4994H33.071V17.6464L31.924 17.6474ZM30.394 17.6474V16.4994H31.541V17.6464L30.394 17.6474ZM28.863 17.6474V16.4994H30.011V17.6464L28.863 17.6474ZM27.333 17.6474V16.4994H28.481V17.6464L27.333 17.6474ZM25.803 17.6474V16.4994H26.95V17.6464L25.803 17.6474ZM22.743 17.6474V16.4994H23.891V17.6464L22.743 17.6474ZM17.579 17.2644V16.1154H18.727V17.2624L17.579 17.2644ZM14.711 17.0734C14.8443 16.686 14.987 16.3034 15.139 15.9254H15.528V17.0734H14.711ZM36.511 16.1174V14.9694H37.659V16.1154L36.511 16.1174ZM34.981 16.1174V14.9694H36.129V16.1154L34.981 16.1174ZM31.922 16.1174V14.9694H33.069V16.1154L31.922 16.1174ZM28.862 16.1174V14.9694H30.01V16.1154L28.862 16.1174ZM27.332 16.1174V14.9694H28.48V16.1154L27.332 16.1174ZM24.272 16.1174V14.9694H25.419V16.1154L24.272 16.1174ZM38.042 16.1174V14.9694H38.642C38.6694 15.3511 38.6748 15.7341 38.658 16.1164L38.042 16.1174ZM10.983 15.9264V14.7784H12.13V15.9254L10.983 15.9264ZM20.256 15.9264V14.7784H21.404V15.9254L20.256 15.9264ZM2.856 15.9264V14.7784H4V15.9254L2.856 15.9264ZM36.515 14.5884V13.4394H37.663V14.5874L36.515 14.5884ZM34.985 14.5884V13.4394H36.133V14.5874L34.985 14.5884ZM33.456 14.5884V13.4394H34.6V14.5874L33.456 14.5884ZM31.926 14.5884V13.4394H33.073V14.5874L31.926 14.5884ZM30.396 14.5884V13.4394H31.543V14.5874L30.396 14.5884ZM27.336 14.5884V13.4394H28.484V14.5874L27.336 14.5884ZM25.806 14.5884V13.4394H26.953V14.5874L25.806 14.5884ZM38.046 14.5884V13.4394H38.371C38.4797 13.815 38.5573 14.199 38.603 14.5874L38.046 14.5884ZM22.746 14.5884V13.6324C22.791 13.5674 22.837 13.5044 22.882 13.4404H23.893V14.5884H22.746ZM17.182 14.0154V12.8654H18.33V14.0154H17.182ZM0.548 14.0154C0.605333 13.634 0.669 13.2514 0.739 12.8674H1.326V14.0154H0.548ZM7.523 13.0594V11.9094H8.671V13.0564L7.523 13.0594ZM36.514 13.0594V11.9094H37.662V13.0564L36.514 13.0594ZM34.984 13.0594V11.9094H36.132V13.0564L34.984 13.0594ZM33.029 13.0594V11.9094H34.176V13.0564L33.029 13.0594ZM38.044 13.0594V12.5734C38.118 12.7314 38.184 12.8944 38.244 13.0594H38.044ZM21.787 12.7404V11.5914H22.934V12.7384L21.787 12.7404ZM27.333 12.6334V11.4844H28.481V12.6314L27.333 12.6334ZM24.847 12.4854V11.3354H26V12.4824L24.847 12.4854ZM12.033 12.4854V11.3354H13.18V12.4824L12.033 12.4854ZM31.349 12.4854V11.3354H32.5V12.4824L31.349 12.4854ZM29.437 11.9114V10.7624H30.585V11.9094L29.437 11.9114ZM36.513 11.5284V10.6744C36.8382 10.9232 37.1326 11.2099 37.39 11.5284H36.513ZM17.007 11.3354V10.1884H18.155V11.3354H17.007ZM32.907 10.8934V9.74638H34.054V10.8934H32.907ZM21.364 10.3764V9.22938H22.512V10.3764H21.364ZM30.84 10.1914V9.04338H31.987V10.1914H30.84ZM34.983 9.99738V9.80238C35.122 9.86338 35.262 9.92938 35.403 9.99638L34.983 9.99738ZM28.29 9.81538V8.66438H29.438V9.81538H28.29ZM4.385 9.80538V8.65838H5.532V9.80638L4.385 9.80538ZM25.422 9.69738V8.55038H26.57V9.69738H25.422ZM6.95 9.42238V8.27538H8.1V9.42238H6.95ZM13.881 9.23138V8.08538H15.029V9.23238L13.881 9.23138ZM0.364 8.84938V8.32338C0.430667 8.11538 0.497333 7.90838 0.564 7.70238H1.511V8.84938H0.364ZM8.974 8.27538V7.12838H10.122V8.27538H8.974ZM31.414 7.94438V7.18538C31.789 7.29638 32.172 7.43238 32.562 7.59038V7.94538L31.414 7.94438ZM17.007 7.56538V7.11538C17.3787 6.94704 17.7624 6.80665 18.155 6.69538V7.56538H17.007ZM23.107 7.56538V6.41538H24.25V7.56438L23.107 7.56538ZM27.339 5.79038V4.81538C27.7011 4.73103 28.0687 4.67189 28.439 4.63838H28.484V5.78938L27.339 5.79038ZM9.88 5.21538V4.11538L9.951 4.06438H11.028V5.21538H9.88ZM19.111 4.89738V3.75038H20.233L20.259 3.76838V4.89838L19.111 4.89738ZM14.956 4.64138V3.49438H16.1V4.64238L14.956 4.64138ZM22.886 3.62138V2.47538H24.034V3.62238L22.886 3.62138ZM2.107 3.49438C2.342 3.18338 2.585 2.88538 2.837 2.60238V3.49438H2.107ZM5.454 3.00738C5.74634 2.72078 6.05413 2.45038 6.376 2.19738V3.00738H5.454ZM13.565 2.15538V1.00838H14.614L14.714 1.01938V2.15638L13.565 2.15538ZM9.639 2.15538C9.79767 2.06071 9.959 1.97138 10.123 1.88738V2.15538H9.639ZM18.471 1.60838V0.515381C18.8577 0.570036 19.241 0.646829 19.619 0.745381V1.60938L18.471 1.60838Z" fill="url(#paint0_radial_3824_25)"/>
<defs>
<radialGradient id="paint0_radial_3824_25" cx="0" cy="0" r="1" gradientUnits="userSpaceOnUse" gradientTransform="translate(22.1276 10.517) rotate(63.5108) scale(40.1945 49.8346)">
<stop stop-color="#DB48F7"/>
<stop offset="1" stop-color="#6F0BD1"/>
</radialGradient>
</defs>
</svg>
