<svg width="199" height="61" viewBox="0 0 199 61" fill="none" xmlns="http://www.w3.org/2000/svg">
<path d="M43.437 59.3874C43.437 59.3734 43.443 59.3544 43.447 59.3384H43.782V60.4704C43.7467 60.4793 43.7104 60.484 43.674 60.4844C43.392 60.4844 43.264 60.1624 43.437 59.3874ZM44.164 59.3384H45.074C44.819 59.6954 44.5123 60.0125 44.164 60.2794V59.3384ZM44.164 58.9564V57.8094H45.312V58.9564H44.164ZM43.523 58.9564C43.581 58.6504 43.648 58.2654 43.723 57.8094H43.786V58.9564H43.523ZM45.694 57.8094H45.958C45.877 57.9984 45.788 58.1824 45.694 58.3594V57.8094ZM44.163 57.4264V56.2784H45.311V57.4264H44.163ZM43.777 57.4264C43.777 57.4174 43.777 57.4084 43.777 57.3994V57.4264ZM45.693 57.4264V56.2784H46.521C46.381 56.6584 46.259 56.9864 46.169 57.2574C46.15 57.3144 46.13 57.3694 46.109 57.4254L45.693 57.4264ZM44.163 55.8964V54.7494H45.311V55.8974L44.163 55.8964ZM45.693 55.8964V54.7494H46.841V55.4074C46.779 55.5794 46.721 55.7414 46.663 55.8964H45.693ZM45.693 54.3664V53.2154H46.84V54.3624L45.693 54.3664ZM44.174 54.3664C44.215 53.9964 44.256 53.6124 44.295 53.2194H45.31V54.3664H44.174ZM47.224 53.2154H47.565C47.4503 53.598 47.3367 53.959 47.224 54.2984V53.2154ZM47.224 52.8324V51.6894H47.987C47.8857 52.0894 47.7823 52.4717 47.677 52.8364L47.224 52.8324ZM45.694 52.8324V51.6894H46.841V52.8364L45.694 52.8324ZM44.335 52.8324C44.371 52.4594 44.405 52.0744 44.435 51.6854H45.309V52.8324H44.335ZM45.694 51.3024V50.1594H46.841V51.3064L45.694 51.3024ZM47.224 51.3024V50.1594H48.336C48.254 50.5594 48.1687 50.9417 48.08 51.3064L47.224 51.3024ZM44.469 51.3024C44.4997 50.925 44.5277 50.5427 44.553 50.1554H45.311V51.3024H44.469ZM28.864 50.5944V50.1544H30.012V50.6214C29.8653 50.632 29.72 50.6374 29.576 50.6374C29.3384 50.6374 29.0999 50.623 28.864 50.5944ZM30.395 50.1544H31.542V50.3144C31.1681 50.4363 30.7844 50.5253 30.395 50.5804V50.1544ZM27.335 50.1984V50.1544H28.483V50.5354C28.0904 50.4607 27.7059 50.3472 27.335 50.1984ZM31.925 50.1544H31.988C31.967 50.1634 31.946 50.1704 31.925 50.1784V50.1544ZM47.225 49.7724V48.6294H48.372V49.7774L47.225 49.7724ZM45.695 49.7724V48.6294H46.842V49.7774L45.695 49.7724ZM30.395 49.7724V48.6294H31.542V49.7774L30.395 49.7724ZM28.864 49.7724V48.6294H30.012V49.7774L28.864 49.7724ZM27.334 49.7724V48.6294H28.482V49.7774L27.334 49.7724ZM44.578 49.7724C44.6027 49.3924 44.6243 49.0097 44.643 48.6244H45.312V49.7724H44.578ZM31.925 49.7724V48.6294H33.072V49.6354C32.987 49.6844 32.902 49.7354 32.818 49.7774L31.925 49.7724ZM26.446 49.7724C26.2287 49.6484 26.0153 49.5131 25.806 49.3664V48.6254H26.953V49.7734L26.446 49.7724ZM33.455 48.6244H34.59C34.2252 48.9033 33.8464 49.1633 33.455 49.4034V48.6244ZM24.878 48.6244H25.422V49.0814C25.238 48.9364 25.057 48.7814 24.878 48.6244ZM47.224 48.2424V47.0994H48.371V48.2464L47.224 48.2424ZM45.694 48.2424V47.0994H46.841V48.2464L45.694 48.2424ZM33.454 48.2424V47.0994H34.6V48.2464L33.454 48.2424ZM31.924 48.2424V47.0994H33.071V48.2464L31.924 48.2424ZM30.394 48.2424V47.0994H31.541V48.2464L30.394 48.2424ZM28.863 48.2424V47.0994H30.011V48.2464L28.863 48.2424ZM27.333 48.2424V47.0994H28.481V48.2464L27.333 48.2424ZM25.803 48.2424V47.0994H26.95V48.2464L25.803 48.2424ZM44.658 48.2424C44.674 47.8614 44.689 47.4784 44.699 47.0954H45.31V48.2424H44.658ZM34.982 48.2424V47.0994H36.13V47.1844C35.7983 47.564 35.4393 47.9189 35.056 48.2464L34.982 48.2424ZM24.477 48.2424C24.408 48.1734 24.34 48.1054 24.277 48.0354V47.0954H25.424V48.2424H24.477ZM23.458 47.0954H23.891V47.6154C23.745 47.4474 23.6 47.2754 23.459 47.0964L23.458 47.0954ZM47.224 46.7154V45.5694H48.371V46.7154H47.224ZM45.694 46.7154V45.5694H46.841V46.7154H45.694ZM44.71 46.7154C44.718 46.3324 44.723 45.9504 44.725 45.5684H45.311V46.7154H44.71ZM36.51 46.7154V45.5694H37.249C37.0342 45.9707 36.7878 46.3542 36.512 46.7164L36.51 46.7154ZM34.98 46.7154V45.5694H36.128V46.7154H34.98ZM33.451 46.7154V45.5694H34.6V46.7154H33.451ZM31.921 46.7154V45.5694H33.068V46.7154H31.921ZM30.391 46.7154V45.5694H31.538V46.7154H30.391ZM28.86 46.7154V45.5694H30.008V46.7154H28.86ZM27.33 46.7154V45.5694H28.478V46.7154H27.33ZM25.8 46.7154V45.5694H26.947V46.7154H25.8ZM24.27 46.7154V45.5694H25.418V46.7154H24.27ZM23.161 46.7154C23.018 46.5224 22.878 46.3224 22.74 46.1154V45.5644H23.888V46.7154H23.161ZM21.04 45.8874C20.8193 45.518 20.607 45.1354 20.403 44.7394H21.251V45.8874H21.04ZM47.22 45.1874V44.0394H48.367V45.1864L47.22 45.1874ZM45.69 45.1874V44.0394H46.837V45.1864L45.69 45.1874ZM34.98 45.1874V44.0394H36.128V45.1864L34.98 45.1874ZM33.451 45.1874V44.0394H34.6V45.1864L33.451 45.1874ZM31.921 45.1874V44.0394H33.068V45.1864L31.921 45.1874ZM30.391 45.1874V44.0394H31.538V45.1864L30.391 45.1874ZM28.86 45.1874V44.0394H30.008V45.1864L28.86 45.1874ZM27.33 45.1874V44.0394H28.478V45.1864L27.33 45.1874ZM25.8 45.1874V44.0394H26.947V45.1864L25.8 45.1874ZM24.27 45.1874V44.0394H25.418V45.1864L24.27 45.1874ZM22.74 45.1874V44.0394H23.888V45.1864L22.74 45.1874ZM44.723 45.1874C44.723 44.802 44.7177 44.4197 44.707 44.0404H45.307V45.1874H44.723ZM36.51 45.1874V44.0394H37.658V44.6824C37.592 44.8524 37.519 45.0194 37.441 45.1824L36.51 45.1874ZM17.859 44.2304C17.823 44.1584 17.788 44.0874 17.753 44.0154V43.0834H18.9V44.2304H17.859ZM47.221 43.6564V42.5094H48.368V43.6564H47.221ZM45.691 43.6564V42.5094H46.838V43.6564H45.691ZM36.511 43.6564V42.5094H37.659V43.6564H36.511ZM34.981 43.6564V42.5094H36.129V43.6564H34.981ZM33.452 43.6564V42.5094H34.6V43.6564H33.452ZM31.922 43.6564V42.5094H33.069V43.6564H31.922ZM30.392 43.6564V42.5094H31.539V43.6564H30.392ZM28.861 43.6564V42.5094H30.009V43.6564H28.861ZM27.331 43.6564V42.5094H28.479V43.6564H27.331ZM25.801 43.6564V42.5094H26.948V43.6564H25.801ZM24.271 43.6564V42.5094H25.418V43.6564H24.271ZM21.785 43.6564V42.5094H22.932V43.6564H21.785ZM44.698 43.6564C44.686 43.2697 44.669 42.8874 44.647 42.5094H45.309V43.6564H44.698ZM38.042 42.5094H38.188C38.1548 42.8117 38.106 43.1121 38.042 43.4094V42.5094ZM47.222 42.1264V40.9794H48.369V42.1274L47.222 42.1264ZM45.692 42.1264V40.9794H46.839V42.1274L45.692 42.1264ZM44.622 42.1264C44.595 41.7374 44.565 41.3534 44.522 40.9784H45.305V42.1264H44.622ZM38.042 42.1264V40.9794H38.235C38.253 41.362 38.249 41.7453 38.223 42.1274L38.042 42.1264ZM36.511 42.1264V40.9794H37.659V42.1274L36.511 42.1264ZM34.981 42.1264V40.9794H36.129V42.1274L34.981 42.1264ZM33.452 42.1264V40.9794H34.6V42.1274L33.452 42.1264ZM31.922 42.1264V40.9794H33.069V42.1274L31.922 42.1264ZM30.392 42.1264V40.9794H31.539V42.1274L30.392 42.1264ZM28.861 42.1264V40.9794H30.009V42.1274L28.861 42.1264ZM27.331 42.1264V40.9794H28.479V42.1274L27.331 42.1264ZM25.801 42.1264V40.9794H26.948V42.1274L25.801 42.1264ZM24.271 42.1264V40.9794H25.418V42.1274L24.271 42.1264ZM22.741 42.1264V40.9794H23.888V42.1274L22.741 42.1264ZM21.21 42.1264V40.9794H22.358V42.1274L21.21 42.1264ZM11.331 41.5524C11.2083 41.207 11.0917 40.858 10.981 40.5054V40.4054H12.128V41.5524H11.331ZM47.22 40.5964V39.4494H48.367V40.5974L47.22 40.5964ZM45.69 40.5964V39.4494H46.837V40.5974L45.69 40.5964ZM44.481 40.5964C44.435 40.2044 44.381 39.8194 44.324 39.4484H45.308V40.5964H44.481ZM38.041 40.5964V39.4494H38.059C38.127 39.8264 38.179 40.2104 38.21 40.5974L38.041 40.5964ZM36.51 40.5964V39.4494H37.658V40.5974L36.51 40.5964ZM34.98 40.5964V39.4494H36.128V40.5974L34.98 40.5964ZM33.451 40.5964V39.4494H34.6V40.5974L33.451 40.5964ZM31.921 40.5964V39.4494H33.068V40.5974L31.921 40.5964ZM30.391 40.5964V39.4494H31.538V40.5974L30.391 40.5964ZM28.86 40.5964V39.4494H30.008V40.5974L28.86 40.5964ZM27.33 40.5964V39.4494H28.478V40.5974L27.33 40.5964ZM25.8 40.5964V39.4494H26.947V40.5974L25.8 40.5964ZM24.27 40.5964V39.4494H25.417V40.5974L24.27 40.5964ZM22.74 40.5964V39.4494H23.887V40.5974L22.74 40.5964ZM19.613 40.5964V39.4494H20.761V40.5974L19.613 40.5964ZM16.03 40.5324V39.3854H17.177V40.5334L16.03 40.5324ZM47.22 39.0654V37.9154H48.367V39.0624L47.22 39.0654ZM45.69 39.0654V37.9154H46.837V39.0624L45.69 39.0654ZM36.51 39.0654V37.9154H37.658V39.0624L36.51 39.0654ZM34.98 39.0654V37.9154H36.128V39.0624L34.98 39.0654ZM33.451 39.0654V37.9154H34.6V39.0624L33.451 39.0654ZM31.921 39.0654V37.9154H33.068V39.0624L31.921 39.0654ZM30.391 39.0654V37.9154H31.538V39.0624L30.391 39.0654ZM28.86 39.0654V37.9154H30.008V39.0624L28.86 39.0654ZM27.33 39.0654V37.9154H28.478V39.0624L27.33 39.0654ZM25.8 39.0654V37.9154H26.947V39.0624L25.8 39.0654ZM24.27 39.0654V37.9154H25.417V39.0624L24.27 39.0654ZM22.74 39.0654V37.9154H23.887V39.0624L22.74 39.0654ZM21.209 39.0654V37.9154H22.357V39.0624L21.209 39.0654ZM44.254 39.0654C44.224 38.9014 44.1923 38.7401 44.159 38.5814V37.9154H45.307V39.0624L44.254 39.0654ZM12.287 37.9094C12.2277 37.5254 12.1763 37.143 12.133 36.7624H13.082V37.9094H12.287ZM47.225 37.5364V36.3894H48.372V37.5364H47.225ZM45.695 37.5364V36.3894H46.842V37.5364H45.695ZM44.164 37.5364V36.3894H45.312V37.5364H44.164ZM36.514 37.5364V36.3894H37.158C37.307 36.7574 37.449 37.1394 37.578 37.5364H36.514ZM34.984 37.5364V36.3894H36.132V37.5364H34.984ZM33.455 37.5364V36.3894H34.6V37.5364H33.455ZM31.925 37.5364V36.3894H33.072V37.5364H31.925ZM30.395 37.5364V36.3894H31.542V37.5364H30.395ZM28.864 37.5364V36.3894H30.012V37.5364H28.864ZM27.334 37.5364V36.3894H28.482V37.5364H27.334ZM25.804 37.5364V36.3894H26.951V37.5364H25.804ZM24.274 37.5364V36.3894H25.421V37.5364H24.274ZM22.744 37.5364V36.3894H23.891V37.5364H22.744ZM43.686 36.8434C43.63 36.6864 43.568 36.5364 43.506 36.3894H43.78V37.1354C43.75 37.0374 43.72 36.9374 43.686 36.8434ZM20.609 36.9154V35.7704H21.756V36.9154H20.609ZM8.526 36.6364C8.486 36.2504 8.45267 35.868 8.426 35.4894H9.519V36.6364H8.526ZM17.182 36.0624V34.9154H18.33V36.0624H17.182ZM43.333 36.0064C43.1428 35.6052 42.918 35.2214 42.661 34.8594H43.781V36.0064H43.333ZM36.514 36.0064V34.9724C36.677 35.2974 36.84 35.6434 36.998 36.0064H36.514ZM47.224 36.0064V34.8594H48.371V36.0064H47.224ZM45.694 36.0064V34.8594H46.841V36.0064H45.694ZM44.163 36.0064V34.8594H45.311V36.0064H44.163ZM34.983 36.0064V34.8594H36.131V36.0064H34.983ZM33.454 36.0064V34.8594H34.6V36.0064H33.454ZM31.924 36.0064V34.8594H33.071V36.0064H31.924ZM30.394 36.0064V34.8594H31.541V36.0064H30.394ZM28.863 36.0064V34.8594H30.011V36.0064H28.863ZM27.333 36.0064V34.8594H28.481V36.0064H27.333ZM24.273 36.0064V34.8594H25.42V36.0064H24.273ZM22.743 36.0064V34.8594H23.891V36.0064H22.743ZM19.109 35.4334V34.2854H20.256V35.4334H19.109ZM14.954 34.6524V33.5054H16.1V34.6524H14.954ZM47.223 34.4764V33.3294H48.077C48.177 33.6934 48.272 34.0764 48.354 34.4764H47.223ZM45.693 34.4764V33.3294H46.84V34.4764H45.693ZM44.162 34.4764V33.3294H45.31V34.4764H44.162ZM42.632 34.4764V33.3294H43.78V34.4764H42.632ZM34.982 34.4764V33.3294H35.6C35.767 33.5984 35.949 33.9064 36.136 34.2464V34.4764H34.982ZM33.453 34.4764V33.3294H34.6V34.4764H33.453ZM31.923 34.4764V33.3294H33.07V34.4764H31.923ZM30.393 34.4764V33.3294H31.54V34.4764H30.393ZM28.862 34.4764V33.3294H30.01V34.4764H28.862ZM27.332 34.4764V33.3294H28.48V34.4764H27.332ZM25.802 34.4764V33.3294H26.949V34.4764H25.802ZM24.272 34.4764V33.3294H25.419V34.4764H24.272ZM22.742 34.4764V33.3294H23.889V34.4764H22.742ZM20.786 34.4764V33.3294H21.934V34.4764H20.786ZM41.124 33.3294H42.249V34.3494C41.9156 33.9665 41.5374 33.6241 41.124 33.3294ZM5.654 34.2854C5.496 33.9094 5.34567 33.5267 5.203 33.1374H5.862V34.2854H5.654ZM18.154 33.1924V32.0444H19.3V33.1914L18.154 33.1924ZM47.224 32.9474V31.7994H47.542C47.696 32.1614 47.842 32.5394 47.969 32.9474H47.224ZM40.524 32.9474C40.2184 32.7752 39.9006 32.6258 39.573 32.5004V31.8004H40.72V32.9484L40.524 32.9474ZM34.983 32.9474V32.4014C35.083 32.5414 35.207 32.7244 35.353 32.9474H34.983ZM45.693 32.9474V31.7994H46.84V32.9474H45.693ZM44.162 32.9474V31.7994H45.31V32.9474H44.162ZM42.632 32.9474V31.7994H43.78V32.9474H42.632ZM41.102 32.9474V31.7994H42.249V32.9474H41.102ZM33.452 32.9474V31.7994H34.6V32.9474H33.452ZM31.922 32.9474V31.7994H33.069V32.9474H31.922ZM30.392 32.9474V31.7994H31.539V32.9474H30.392ZM28.861 32.9474V31.7994H30.009V32.9474H28.861ZM27.331 32.9474V31.7994H28.479V32.9474H27.331ZM25.801 32.9474V31.7994H26.948V32.9474H25.801ZM24.271 32.9474V31.7994H25.418V32.9474H24.271ZM22.741 32.9474V31.7994H23.888V32.9474H22.741ZM21.21 32.9474V31.7994H22.358V32.9474H21.21ZM13.56 32.6184V31.4714H14.708V32.6154L13.56 32.6184ZM38.04 32.0844V31.7994H39.187V32.3654C38.8116 32.2452 38.4284 32.1513 38.04 32.0844ZM34.979 31.7994H36.127V31.9494C35.7427 31.9594 35.3593 31.9928 34.979 32.0494V31.7994ZM36.509 31.9474V31.7994H37.657V32.0264C37.2762 31.9778 36.8929 31.9514 36.509 31.9474ZM44.159 31.4164V30.2694H45.307V31.4154L44.159 31.4164ZM42.629 31.4164V30.2694H43.777V31.4154L42.629 31.4164ZM41.099 31.4164V30.2694H42.246V31.4154L41.099 31.4164ZM39.569 31.4164V30.2694H40.716V31.4154L39.569 31.4164ZM38.039 31.4164V30.2694H39.186V31.4154L38.039 31.4164ZM36.508 31.4164V30.2694H37.656V31.4154L36.508 31.4164ZM34.978 31.4164V30.2694H36.126V31.4154L34.978 31.4164ZM33.449 31.4164V30.2694H34.6V31.4154L33.449 31.4164ZM31.919 31.4164V30.2694H33.066V31.4154L31.919 31.4164ZM30.389 31.4164V30.2694H31.536V31.4154L30.389 31.4164ZM28.858 31.4164V30.2694H30.006V31.4154L28.858 31.4164ZM27.328 31.4164V30.2694H28.476V31.4154L27.328 31.4164ZM25.798 31.4164V30.2694H26.945V31.4154L25.798 31.4164ZM24.268 31.4164V30.2694H25.415V31.4154L24.268 31.4164ZM22.738 31.4164V30.2694H23.885V31.4154L22.738 31.4164ZM20.252 31.4164V30.2694H21.4V31.4154L20.252 31.4164ZM47.218 31.4164V31.1054C47.2693 31.2067 47.32 31.3104 47.37 31.4164H47.218ZM45.688 31.4164V30.2694H46.741C46.772 30.3184 46.805 30.3644 46.835 30.4144V31.4144L45.688 31.4164ZM8.512 30.7484C8.43733 30.365 8.36667 29.9824 8.3 29.6004H9.035V30.7474L8.512 30.7484ZM17.182 30.2694V29.1224H18.33V30.2694H17.182ZM45.694 29.8864V28.9064C45.9838 29.2134 46.2512 29.5409 46.494 29.8864H45.694ZM44.164 29.8864V28.7394H45.312V29.8874L44.164 29.8864ZM42.634 29.8864V28.7394H43.782V29.8874L42.634 29.8864ZM41.104 29.8864V28.7394H42.251V29.8874L41.104 29.8864ZM39.574 29.8864V28.7394H40.721V29.8874L39.574 29.8864ZM38.044 29.8864V28.7394H39.191V29.8874L38.044 29.8864ZM36.513 29.8864V28.7394H37.661V29.8874L36.513 29.8864ZM34.983 29.8864V28.7394H36.131V29.8874L34.983 29.8864ZM33.454 29.8864V28.7394H34.6V29.8874L33.454 29.8864ZM31.924 29.8864V28.7394H33.071V29.8874L31.924 29.8864ZM30.394 29.8864V28.7394H31.541V29.8874L30.394 29.8864ZM28.863 29.8864V28.7394H30.011V29.8874L28.863 29.8864ZM27.333 29.8864V28.7394H28.481V29.8874L27.333 29.8864ZM25.803 29.8864V28.7394H26.95V29.8874L25.803 29.8864ZM24.273 29.8864V28.7394H25.42V29.8874L24.273 29.8864ZM21.213 29.8864V28.7394H22.361V29.8874L21.213 29.8864ZM14.955 29.8234C14.955 29.4474 14.965 29.0647 14.985 28.6754H16.1V29.8234H14.955ZM2.288 29.6954C2.19333 29.314 2.10567 28.9314 2.025 28.5474H2.472V29.6954H2.288ZM19.044 28.7814V27.6344H20.191V28.7814H19.044ZM9.88 28.5154V27.3724H11.028V28.5154H9.88ZM44.164 28.3524V27.6184C44.5025 27.8397 44.8246 28.085 45.128 28.3524H44.164ZM42.634 28.3524V27.2094H43.462C43.569 27.2654 43.676 27.3184 43.782 27.3794V28.3564L42.634 28.3524ZM41.104 28.3524V27.2094H42.251V28.3564L41.104 28.3524ZM39.574 28.3524V27.2094H40.722V28.3564L39.574 28.3524ZM38.044 28.3524V27.2094H39.191V28.3564L38.044 28.3524ZM36.513 28.3524V27.2094H37.661V28.3564L36.513 28.3524ZM34.983 28.3524V27.2094H36.131V28.3564L34.983 28.3524ZM33.454 28.3524V27.2094H34.6V28.3564L33.454 28.3524ZM31.924 28.3524V27.2094H33.071V28.3564L31.924 28.3524ZM30.394 28.3524V27.2094H31.541V28.3564L30.394 28.3524ZM28.863 28.3524V27.2094H30.011V28.3564L28.863 28.3524ZM27.333 28.3524V27.2094H28.481V28.3564L27.333 28.3524ZM25.803 28.3524V27.2094H26.95V28.3564L25.803 28.3524ZM24.273 28.3524V27.2094H25.42V28.3564L24.273 28.3524ZM22.743 28.3524V27.2094H23.89V28.3564L22.743 28.3524ZM20.787 28.3524V27.2094H21.935V28.3564L20.787 28.3524ZM12.987 27.7024V26.5604H14.135V27.7074L12.987 27.7024ZM33.451 26.8214V25.6794H34.6V26.8264L33.451 26.8214ZM31.921 26.8214V25.6794H33.068V26.8264L31.921 26.8214ZM30.391 26.8214V25.6794H31.538V26.8264L30.391 26.8214ZM28.86 26.8214V25.6794H30.008V26.8264L28.86 26.8214ZM27.33 26.8214V25.6794H28.478V26.8264L27.33 26.8214ZM25.8 26.8214V25.6794H26.947V26.8264L25.8 26.8214ZM24.27 26.8214V25.6794H25.417V26.8264L24.27 26.8214ZM22.315 26.8214V25.6794H23.462V26.8264L22.315 26.8214ZM41.099 26.8214V26.3314C41.4874 26.423 41.8704 26.5365 42.246 26.6714V26.8214H41.099ZM39.569 26.8214V26.0684C39.942 26.1094 40.326 26.1684 40.716 26.2454V26.8214H39.569ZM38.04 26.8214V25.9774C38.401 25.9774 38.787 25.9984 39.187 26.0324V26.8224L38.04 26.8214ZM36.509 26.8214V26.0154C36.843 25.9974 37.23 25.9824 37.657 25.9784V26.8224L36.509 26.8214ZM34.979 26.8214V25.6794H35.419C35.3668 25.7579 35.31 25.8334 35.249 25.9054C35.081 26.0904 35.44 26.0774 36.127 26.0394V26.8264L34.979 26.8214ZM42.629 26.8214V26.8154L42.648 26.8234L42.629 26.8214ZM19.106 26.5294V25.3874H20.253V26.5344L19.106 26.5294ZM16.515 25.5434C16.5543 25.1634 16.601 24.7807 16.655 24.3954H17.488V25.5434H16.515ZM33.449 25.2914V24.1494H34.6V25.2964L33.449 25.2914ZM31.919 25.2914V24.1494H33.066V25.2964L31.919 25.2914ZM30.389 25.2914V24.1494H31.536V25.2964L30.389 25.2914ZM28.858 25.2914V24.1494H30.006V25.2964L28.858 25.2914ZM27.328 25.2914V24.1494H28.476V25.2964L27.328 25.2914ZM25.798 25.2914V24.1494H26.945V25.2964L25.798 25.2914ZM22.738 25.2914V24.1494H23.885V25.2964L22.738 25.2914ZM20.782 25.2914V24.1494H21.93V25.2964L20.782 25.2914ZM34.977 25.2914V24.1494H36.125V24.4664C35.954 24.7904 35.797 25.0664 35.66 25.2974L34.977 25.2914ZM9.877 24.7174V23.5754H11.025V24.7224L9.877 24.7174ZM34.977 23.7614V22.6154H36.125V23.7624L34.977 23.7614ZM33.448 23.7614V22.6154H34.6V23.7624L33.448 23.7614ZM31.918 23.7614V22.6154H33.065V23.7624L31.918 23.7614ZM30.388 23.7614V22.6154H31.535V23.7624L30.388 23.7614ZM28.857 23.7614V22.6154H30.005V23.7624L28.857 23.7614ZM27.327 23.7614V22.6154H28.475V23.7624L27.327 23.7614ZM25.797 23.7614V22.6154H26.944V23.7624L25.797 23.7614ZM24.267 23.7614V22.6154H25.414V23.7624L24.267 23.7614ZM36.514 22.6154H37.006C36.8407 23.0027 36.6767 23.3644 36.514 23.7004V22.6154ZM17.58 23.5714V22.4284H18.728V23.5754L17.58 23.5714ZM14.454 23.5714C14.5287 23.1887 14.6097 22.8064 14.697 22.4244H14.969V23.5754L14.454 23.5714ZM1.36 23.5714C1.34 23.184 1.32867 22.8017 1.326 22.4244H2.472V23.5754L1.36 23.5714ZM22.32 23.3374V22.1944H23.467V23.3414L22.32 23.3374ZM36.514 22.2374V21.0894H37.6C37.46 21.4894 37.313 21.8704 37.163 22.2374H36.514ZM34.984 22.2374V21.0894H36.132V22.2374H34.984ZM33.455 22.2374V21.0894H34.6V22.2374H33.455ZM31.925 22.2374V21.0894H33.072V22.2374H31.925ZM30.395 22.2374V21.0894H31.542V22.2374H30.395ZM28.864 22.2374V21.0894H30.012V22.2374H28.864ZM27.334 22.2374V21.0894H28.482V22.2374H27.334ZM25.804 22.2374V21.0894H26.951V22.2374H25.804ZM24.274 22.2374V21.0894H25.421V22.2374H24.274ZM19.684 22.2374V21.0894H20.832V22.2374H19.684ZM5.914 22.0454V20.8984H7.062V22.0454H5.914ZM16.608 21.2804V20.1334H17.756V21.2804H16.608ZM36.514 20.7064V19.5594H37.662V20.7064H36.514ZM34.984 20.7064V19.5594H36.132V20.7064H34.984ZM33.455 20.7064V19.5594H34.6V20.7064H33.455ZM31.925 20.7064V19.5594H33.072V20.7064H31.925ZM30.395 20.7064V19.5594H31.542V20.7064H30.395ZM27.335 20.7064V19.5594H28.483V20.7064H27.335ZM25.805 20.7064V19.5594H26.952V20.7064H25.805ZM22.745 20.7064V19.5594H23.893V20.7064H22.745ZM0 20.5154C0.022 20.1374 0.051 19.755 0.087 19.3684H1.1V20.5154H0ZM11.56 19.9424V18.7944H12.707V19.9424H11.56ZM38.045 19.5594H38.086C38.073 19.6074 38.057 19.6594 38.045 19.7034V19.5594ZM9.013 19.3684C9.213 18.9754 9.413 18.5924 9.624 18.2214H10.082V19.3684H9.013ZM18.155 19.3684V18.2214H19.3V19.3684H18.155ZM38.045 19.1774V18.0294H38.437C38.366 18.4144 38.281 18.7974 38.185 19.1774H38.045ZM36.514 19.1774V18.0294H37.662V19.1774H36.514ZM34.984 19.1774V18.0294H36.132V19.1774H34.984ZM33.455 19.1774V18.0294H34.6V19.1774H33.455ZM31.925 19.1774V18.0294H33.072V19.1774H31.925ZM30.395 19.1774V18.0294H31.542V19.1774H30.395ZM28.864 19.1774V18.0294H30.012V19.1774H28.864ZM27.334 19.1774V18.0294H28.482V19.1774H27.334ZM24.274 19.1774V18.0294H25.421V19.1774H24.274ZM21.214 19.1774V18.0294H22.362V19.1774H21.214ZM4.384 18.9864V17.8384H5.532V18.9854L4.384 18.9864ZM38.044 17.6474V16.4994H38.636C38.608 16.8804 38.565 17.2634 38.504 17.6464L38.044 17.6474ZM36.513 17.6474V16.4994H37.661V17.6464L36.513 17.6474ZM34.983 17.6474V16.4994H36.131V17.6464L34.983 17.6474ZM33.454 17.6474V16.4994H34.6V17.6464L33.454 17.6474ZM31.924 17.6474V16.4994H33.071V17.6464L31.924 17.6474ZM30.394 17.6474V16.4994H31.541V17.6464L30.394 17.6474ZM28.863 17.6474V16.4994H30.011V17.6464L28.863 17.6474ZM27.333 17.6474V16.4994H28.481V17.6464L27.333 17.6474ZM25.803 17.6474V16.4994H26.95V17.6464L25.803 17.6474ZM22.743 17.6474V16.4994H23.891V17.6464L22.743 17.6474ZM17.579 17.2644V16.1154H18.727V17.2624L17.579 17.2644ZM14.711 17.0734C14.8443 16.686 14.987 16.3034 15.139 15.9254H15.528V17.0734H14.711ZM36.511 16.1174V14.9694H37.659V16.1154L36.511 16.1174ZM34.981 16.1174V14.9694H36.129V16.1154L34.981 16.1174ZM31.922 16.1174V14.9694H33.069V16.1154L31.922 16.1174ZM28.862 16.1174V14.9694H30.01V16.1154L28.862 16.1174ZM27.332 16.1174V14.9694H28.48V16.1154L27.332 16.1174ZM24.272 16.1174V14.9694H25.419V16.1154L24.272 16.1174ZM38.042 16.1174V14.9694H38.642C38.6694 15.3511 38.6748 15.7341 38.658 16.1164L38.042 16.1174ZM10.983 15.9264V14.7784H12.13V15.9254L10.983 15.9264ZM20.256 15.9264V14.7784H21.404V15.9254L20.256 15.9264ZM2.856 15.9264V14.7784H4V15.9254L2.856 15.9264ZM36.515 14.5884V13.4394H37.663V14.5874L36.515 14.5884ZM34.985 14.5884V13.4394H36.133V14.5874L34.985 14.5884ZM33.456 14.5884V13.4394H34.6V14.5874L33.456 14.5884ZM31.926 14.5884V13.4394H33.073V14.5874L31.926 14.5884ZM30.396 14.5884V13.4394H31.543V14.5874L30.396 14.5884ZM27.336 14.5884V13.4394H28.484V14.5874L27.336 14.5884ZM25.806 14.5884V13.4394H26.953V14.5874L25.806 14.5884ZM38.046 14.5884V13.4394H38.371C38.4797 13.815 38.5573 14.199 38.603 14.5874L38.046 14.5884ZM22.746 14.5884V13.6324C22.791 13.5674 22.837 13.5044 22.882 13.4404H23.893V14.5884H22.746ZM17.182 14.0154V12.8654H18.33V14.0154H17.182ZM0.548 14.0154C0.605333 13.634 0.669 13.2514 0.739 12.8674H1.326V14.0154H0.548ZM7.523 13.0594V11.9094H8.671V13.0564L7.523 13.0594ZM36.514 13.0594V11.9094H37.662V13.0564L36.514 13.0594ZM34.984 13.0594V11.9094H36.132V13.0564L34.984 13.0594ZM33.029 13.0594V11.9094H34.176V13.0564L33.029 13.0594ZM38.044 13.0594V12.5734C38.118 12.7314 38.184 12.8944 38.244 13.0594H38.044ZM21.787 12.7404V11.5914H22.934V12.7384L21.787 12.7404ZM27.333 12.6334V11.4844H28.481V12.6314L27.333 12.6334ZM24.847 12.4854V11.3354H26V12.4824L24.847 12.4854ZM12.033 12.4854V11.3354H13.18V12.4824L12.033 12.4854ZM31.349 12.4854V11.3354H32.5V12.4824L31.349 12.4854ZM29.437 11.9114V10.7624H30.585V11.9094L29.437 11.9114ZM36.513 11.5284V10.6744C36.8382 10.9232 37.1326 11.2099 37.39 11.5284H36.513ZM17.007 11.3354V10.1884H18.155V11.3354H17.007ZM32.907 10.8934V9.74638H34.054V10.8934H32.907ZM21.364 10.3764V9.22938H22.512V10.3764H21.364ZM30.84 10.1914V9.04338H31.987V10.1914H30.84ZM34.983 9.99738V9.80238C35.122 9.86338 35.262 9.92938 35.403 9.99638L34.983 9.99738ZM28.29 9.81538V8.66438H29.438V9.81538H28.29ZM4.385 9.80538V8.65838H5.532V9.80638L4.385 9.80538ZM25.422 9.69738V8.55038H26.57V9.69738H25.422ZM6.95 9.42238V8.27538H8.1V9.42238H6.95ZM13.881 9.23138V8.08538H15.029V9.23238L13.881 9.23138ZM0.364 8.84938V8.32338C0.430667 8.11538 0.497333 7.90838 0.564 7.70238H1.511V8.84938H0.364ZM8.974 8.27538V7.12838H10.122V8.27538H8.974ZM31.414 7.94438V7.18538C31.789 7.29638 32.172 7.43238 32.562 7.59038V7.94538L31.414 7.94438ZM17.007 7.56538V7.11538C17.3787 6.94704 17.7624 6.80665 18.155 6.69538V7.56538H17.007ZM23.107 7.56538V6.41538H24.25V7.56438L23.107 7.56538ZM27.339 5.79038V4.81538C27.7011 4.73103 28.0687 4.67189 28.439 4.63838H28.484V5.78938L27.339 5.79038ZM9.88 5.21538V4.11538L9.951 4.06438H11.028V5.21538H9.88ZM19.111 4.89738V3.75038H20.233L20.259 3.76838V4.89838L19.111 4.89738ZM14.956 4.64138V3.49438H16.1V4.64238L14.956 4.64138ZM22.886 3.62138V2.47538H24.034V3.62238L22.886 3.62138ZM2.107 3.49438C2.342 3.18338 2.585 2.88538 2.837 2.60238V3.49438H2.107ZM5.454 3.00738C5.74634 2.72078 6.05413 2.45038 6.376 2.19738V3.00738H5.454ZM13.565 2.15538V1.00838H14.614L14.714 1.01938V2.15638L13.565 2.15538ZM9.639 2.15538C9.79767 2.06071 9.959 1.97138 10.123 1.88738V2.15538H9.639ZM18.471 1.60838V0.515381C18.8577 0.570036 19.241 0.646829 19.619 0.745381V1.60938L18.471 1.60838Z" fill="url(#paint0_radial_3824_24)"/>
<path d="M70.676 20.8494H60.339V38.6894H70.676V35.7794H63.912V31.0574H69.912V28.2244H63.912V23.7584H70.676V20.8494ZM80.145 20.8754H73.917V38.6904H80.145C85.837 38.6904 89.537 35.1904 89.537 29.8084C89.537 24.4004 85.836 20.8754 80.145 20.8754ZM77.49 35.6524V23.8864H80.017C83.769 23.8864 85.887 26.1064 85.887 29.8074C85.887 33.5084 83.769 35.6524 80.017 35.6524H77.49ZM102.273 38.6894H106.791L99.236 29.7054L106.587 20.8744H102.273L95.79 28.8634V20.8744H92.217V38.6894H95.79V30.7514L102.273 38.6894ZM115.366 20.8754H109.138V38.6904H115.366C121.058 38.6904 124.758 35.1904 124.758 29.8084C124.758 24.4004 121.058 20.8754 115.366 20.8754ZM112.712 35.6524V23.8864H115.238C118.99 23.8864 121.108 26.1064 121.108 29.8074C121.108 33.5084 118.99 35.6524 115.238 35.6524H112.712Z" fill="#232836"/>
<path d="M63.792 48.7723H60.37V55.3353H63.792V54.7913H61.03V52.3063H63.511V51.7623H61.03V49.3203H63.792V48.7723ZM64.786 52.7663C64.7566 53.1035 64.798 53.4431 64.9073 53.7635C65.0167 54.0838 65.1917 54.3778 65.4212 54.6266C65.6506 54.8755 65.9295 55.0737 66.2399 55.2086C66.5503 55.3436 66.8855 55.4123 67.224 55.4103C67.6439 55.428 68.0599 55.323 68.4212 55.1082C68.7824 54.8933 69.0732 54.5778 69.258 54.2003V55.3343H69.914V50.2203H69.258V51.3453C69.0755 50.9676 68.786 50.6519 68.4253 50.4376C68.0647 50.2233 67.649 50.1199 67.23 50.1403C66.892 50.1354 66.5567 50.2014 66.2458 50.3341C65.9349 50.4668 65.6553 50.6632 65.425 50.9107C65.1947 51.1581 65.0188 51.4511 64.9088 51.7707C64.7987 52.0904 64.7569 52.4295 64.786 52.7663ZM69.258 52.7753C69.2796 53.0379 69.2464 53.3022 69.1607 53.5514C69.0751 53.8006 68.9386 54.0293 68.7601 54.2232C68.5816 54.417 68.3648 54.5718 68.1235 54.6776C67.8822 54.7835 67.6215 54.8382 67.358 54.8383C67.0929 54.8409 66.8302 54.7878 66.5869 54.6822C66.3437 54.5767 66.1254 54.4212 65.9462 54.2257C65.767 54.0303 65.6309 53.7994 65.5468 53.548C65.4627 53.2965 65.4325 53.0302 65.458 52.7663C65.4319 52.5032 65.4619 52.2376 65.5461 51.987C65.6302 51.7363 65.7666 51.5064 65.9462 51.3124C66.1257 51.1183 66.3444 50.9646 66.5878 50.8613C66.8312 50.7581 67.0937 50.7076 67.358 50.7133C67.6214 50.7134 67.882 50.7681 68.1232 50.8739C68.3645 50.9797 68.5812 51.1343 68.7597 51.3281C68.9382 51.5218 69.0747 51.7504 69.1604 51.9995C69.2462 52.2486 69.2794 52.5127 69.258 52.7753ZM72.071 52.4753C72.071 51.1913 72.793 50.8063 73.646 50.8063H73.824V50.1203C73.4646 50.0875 73.1037 50.1658 72.7903 50.3446C72.4768 50.5235 72.2257 50.7942 72.071 51.1203V50.2203H71.415V55.3393H72.071V52.4753ZM74.809 55.3353H75.465V48.3973H74.809V55.3353ZM78.809 54.5853L77.068 50.2203H76.346L78.446 55.3113L77.452 57.7493H78.136L81.175 50.2203H80.5L78.809 54.5853ZM84.33 52.7663C84.3007 53.1046 84.3425 53.4452 84.4527 53.7664C84.5629 54.0876 84.7391 54.3821 84.9699 54.6311C85.2007 54.8802 85.4811 55.0781 85.793 55.2123C86.1049 55.3465 86.4415 55.4139 86.781 55.4103C87.2011 55.4291 87.6173 55.3234 87.9776 55.1066C88.3378 54.8897 88.626 54.5713 88.806 54.1913V55.3353H89.462V48.3973H88.806V51.3203C88.6125 50.9559 88.3215 50.6524 87.9655 50.4439C87.6095 50.2353 87.2025 50.1299 86.79 50.1393C86.4507 50.1324 86.1137 50.197 85.8009 50.3289C85.4882 50.4607 85.2067 50.6569 84.9747 50.9047C84.7427 51.1524 84.5654 51.4462 84.4543 51.7669C84.3433 52.0876 84.3009 52.4281 84.33 52.7663ZM88.802 52.7753C88.8236 53.0379 88.7904 53.3022 88.7047 53.5514C88.6191 53.8006 88.4826 54.0293 88.3041 54.2232C88.1256 54.417 87.9088 54.5718 87.6675 54.6776C87.4262 54.7835 87.1655 54.8382 86.902 54.8383C86.6369 54.8409 86.3742 54.7878 86.1309 54.6822C85.8877 54.5767 85.6694 54.4212 85.4902 54.2257C85.311 54.0303 85.1749 53.7994 85.0908 53.548C85.0067 53.2965 84.9764 53.0302 85.002 52.7663C84.9759 52.5032 85.0059 52.2376 85.0901 51.987C85.1742 51.7363 85.3106 51.5064 85.4902 51.3124C85.6697 51.1183 85.8884 50.9646 86.1318 50.8613C86.3752 50.7581 86.6377 50.7076 86.902 50.7133C87.1658 50.7128 87.4268 50.7671 87.6685 50.8727C87.9102 50.9782 88.1274 51.1328 88.3064 51.3266C88.4853 51.5204 88.6221 51.7492 88.7081 51.9985C88.7941 52.2479 88.8274 52.5124 88.806 52.7753H88.802ZM93.143 50.7033C93.3823 50.6865 93.6225 50.7213 93.8472 50.8054C94.0719 50.8895 94.2759 51.0209 94.4454 51.1908C94.6149 51.3606 94.7458 51.5649 94.8295 51.7898C94.9131 52.0147 94.9474 52.255 94.93 52.4943H91.33C91.3267 52.256 91.3716 52.0194 91.462 51.7989C91.5525 51.5784 91.6867 51.3785 91.8564 51.2111C92.0261 51.0438 92.228 50.9126 92.4498 50.8253C92.6716 50.738 92.9087 50.6965 93.147 50.7033H93.143ZM95.515 53.7133H94.83C94.7293 54.0652 94.51 54.3713 94.2092 54.5799C93.9085 54.7884 93.5448 54.8864 93.18 54.8573C92.9366 54.8655 92.6941 54.824 92.4673 54.7353C92.2405 54.6465 92.0342 54.5124 91.8611 54.3412C91.6879 54.17 91.5515 53.9653 91.4602 53.7395C91.3688 53.5138 91.3246 53.2718 91.33 53.0283H95.577C95.5932 52.8568 95.5996 52.6845 95.596 52.5123C95.6064 52.194 95.5506 51.877 95.4321 51.5813C95.3136 51.2857 95.1349 51.0179 94.9075 50.7949C94.6801 50.5719 94.4089 50.3986 94.111 50.2859C93.8131 50.1732 93.4951 50.1236 93.177 50.1403C92.8328 50.1266 92.4896 50.1864 92.1703 50.3157C91.851 50.445 91.5629 50.6408 91.3252 50.8901C91.0875 51.1393 90.9055 51.4364 90.7915 51.7615C90.6775 52.0865 90.634 52.4321 90.664 52.7753C90.6363 53.1179 90.6814 53.4624 90.7962 53.7864C90.9109 54.1104 91.0929 54.4065 91.33 54.6552C91.5672 54.904 91.8542 55.0999 92.1723 55.23C92.4905 55.3601 92.8325 55.4215 93.176 55.4103C93.7037 55.448 94.2279 55.2986 94.6564 54.9883C95.0849 54.6779 95.3903 54.2265 95.519 53.7133H95.515ZM96.978 53.9473C96.978 54.9693 97.456 55.3353 98.347 55.3353H99.047V54.7723H98.447C97.856 54.7723 97.641 54.5723 97.641 53.9473V50.7693H99.047V50.2203H97.648V48.9363H96.982V50.2203H96.27V50.7733H96.983L96.978 53.9473ZM102.313 50.7033C102.552 50.6874 102.791 50.7229 103.015 50.8074C103.239 50.8919 103.443 51.0235 103.611 51.1932C103.78 51.363 103.911 51.5669 103.994 51.7914C104.077 52.0158 104.111 52.2555 104.094 52.4943H100.494C100.491 52.2554 100.536 52.0184 100.627 51.7975C100.717 51.5765 100.852 51.3763 101.022 51.2089C101.193 51.0415 101.395 50.9104 101.618 50.8235C101.84 50.7366 102.078 50.6957 102.317 50.7033H102.313ZM104.685 53.7133H103.991C103.89 54.0652 103.671 54.3713 103.37 54.5799C103.069 54.7884 102.706 54.8864 102.341 54.8573C102.098 54.8651 101.856 54.8233 101.629 54.7344C101.403 54.6456 101.197 54.5115 101.024 54.3405C100.852 54.1694 100.715 53.9649 100.624 53.7395C100.533 53.5141 100.489 53.2724 100.494 53.0293H104.741C104.757 52.8578 104.764 52.6855 104.76 52.5133C104.77 52.195 104.715 51.8779 104.596 51.5823C104.478 51.2867 104.299 51.0189 104.072 50.7959C103.844 50.5729 103.573 50.3996 103.275 50.2869C102.977 50.1742 102.659 50.1246 102.341 50.1413C101.997 50.1279 101.654 50.1879 101.335 50.3173C101.016 50.4466 100.728 50.6424 100.491 50.8915C100.253 51.1406 100.072 51.4375 99.9577 51.7623C99.8438 52.0871 99.8002 52.4324 99.83 52.7753C99.8023 53.1181 99.8474 53.463 99.9624 53.7872C100.077 54.1113 100.26 54.4076 100.497 54.6564C100.735 54.9052 101.022 55.101 101.34 55.2309C101.659 55.3609 102.001 55.422 102.345 55.4103C102.873 55.4483 103.397 55.299 103.826 54.9886C104.255 54.6782 104.56 54.2267 104.689 53.7133H104.685ZM105.66 52.7753C105.63 53.1164 105.673 53.4601 105.785 53.7835C105.898 54.107 106.077 54.403 106.313 54.6519C106.548 54.9009 106.833 55.0972 107.15 55.2279C107.466 55.3586 107.807 55.4208 108.149 55.4103C108.685 55.4498 109.218 55.2954 109.649 54.9754C110.081 54.6553 110.384 54.1907 110.502 53.6663H109.802C109.716 54.0298 109.502 54.3502 109.199 54.5689C108.896 54.7876 108.524 54.8899 108.152 54.8573C107.889 54.859 107.63 54.8041 107.39 54.6964C107.151 54.5887 106.938 54.4307 106.765 54.2332C106.592 54.0356 106.463 53.8032 106.388 53.5516C106.313 53.3 106.294 53.0353 106.33 52.7753C106.294 52.5161 106.314 52.2522 106.389 52.0015C106.464 51.7507 106.592 51.5192 106.765 51.3225C106.937 51.1258 107.15 50.9687 107.389 50.8619C107.628 50.755 107.887 50.7009 108.149 50.7033C108.52 50.6708 108.89 50.772 109.192 50.9886C109.495 51.2052 109.71 51.5229 109.799 51.8843H110.499C110.387 51.3564 110.087 50.8876 109.653 50.5663C109.22 50.245 108.684 50.0935 108.146 50.1403C107.804 50.1308 107.464 50.1937 107.149 50.3249C106.833 50.456 106.549 50.6525 106.314 50.9013C106.08 51.1502 105.901 51.4458 105.789 51.7688C105.677 52.0917 105.634 52.4347 105.664 52.7753H105.66ZM111.895 53.9473C111.895 54.9693 112.373 55.3353 113.264 55.3353H113.964V54.7723H113.364C112.773 54.7723 112.558 54.5723 112.558 53.9473V50.7693H113.964V50.2203H112.565V48.9363H111.899V50.2203H111.186V50.7733H111.899L111.895 53.9473ZM115.045 55.3353H115.701V50.2203H115.045V55.3353ZM115.373 49.2503C115.437 49.2506 115.5 49.2381 115.559 49.2135C115.617 49.189 115.671 49.1529 115.715 49.1074C115.76 49.0619 115.795 49.0079 115.818 48.9486C115.841 48.8893 115.853 48.826 115.851 48.7623C115.852 48.6991 115.841 48.6364 115.817 48.5778C115.794 48.5192 115.759 48.4659 115.714 48.4213C115.669 48.3766 115.616 48.3414 115.558 48.3179C115.499 48.2944 115.436 48.2829 115.373 48.2843C115.31 48.2829 115.247 48.2944 115.188 48.3179C115.13 48.3414 115.077 48.3766 115.032 48.4213C114.987 48.4659 114.952 48.5192 114.929 48.5778C114.905 48.6364 114.894 48.6991 114.895 48.7623C114.893 48.8263 114.905 48.89 114.928 48.9495C114.952 49.0091 114.987 49.0633 115.032 49.1088C115.077 49.1544 115.131 49.1904 115.19 49.2147C115.249 49.239 115.313 49.2511 115.377 49.2503H115.373ZM122.011 52.7753C122.033 52.4298 121.983 52.0835 121.864 51.7586C121.744 51.4338 121.557 51.1376 121.316 50.8893C121.075 50.641 120.784 50.4461 120.463 50.3171C120.142 50.188 119.797 50.1278 119.451 50.1403C119.105 50.1286 118.761 50.1893 118.44 50.3186C118.119 50.4479 117.829 50.6429 117.588 50.891C117.347 51.1392 117.16 51.435 117.04 51.7595C116.92 52.084 116.869 52.43 116.891 52.7753C116.867 53.1199 116.916 53.4656 117.035 53.7901C117.153 54.1146 117.338 54.4106 117.578 54.659C117.818 54.9074 118.108 55.1026 118.428 55.232C118.748 55.3614 119.092 55.4222 119.437 55.4103C119.783 55.4216 120.129 55.3608 120.45 55.2316C120.772 55.1024 121.063 54.9078 121.306 54.66C121.548 54.4122 121.736 54.1166 121.859 53.7922C121.981 53.4677 122.034 53.1214 122.015 52.7753H122.011ZM117.558 52.7753C117.529 52.5125 117.557 52.2466 117.639 51.9953C117.721 51.744 117.856 51.5131 118.034 51.318C118.213 51.1228 118.431 50.9679 118.674 50.8634C118.916 50.759 119.179 50.7075 119.443 50.7123C119.708 50.7067 119.971 50.7576 120.215 50.8616C120.459 50.9656 120.678 51.1203 120.857 51.3155C121.037 51.5106 121.173 51.7417 121.256 51.9934C121.339 52.2451 121.368 52.5116 121.34 52.7753C121.366 53.0388 121.336 53.3048 121.252 53.5559C121.167 53.8069 121.031 54.0374 120.852 54.2321C120.672 54.4269 120.454 54.5816 120.211 54.686C119.967 54.7905 119.705 54.8424 119.44 54.8383C119.176 54.8432 118.914 54.7917 118.671 54.6872C118.429 54.5827 118.211 54.4277 118.034 54.2323C117.856 54.037 117.722 53.806 117.64 53.5547C117.559 53.3035 117.532 53.0377 117.562 52.7753H117.558ZM127.046 55.3353H127.693V52.3353C127.727 52.048 127.697 51.7569 127.606 51.4822C127.516 51.2076 127.366 50.956 127.169 50.7451C126.971 50.5341 126.729 50.3689 126.461 50.261C126.192 50.1531 125.904 50.1051 125.615 50.1203C125.263 50.1004 124.912 50.1806 124.604 50.3515C124.295 50.5224 124.041 50.7772 123.871 51.0863V50.2203H123.215V55.3393H123.871V52.5413C123.871 51.2943 124.537 50.6943 125.493 50.6943C125.714 50.6835 125.935 50.7219 126.14 50.8066C126.344 50.8913 126.527 51.0203 126.676 51.1843C126.825 51.3482 126.936 51.5431 127 51.7549C127.065 51.9667 127.082 52.1902 127.05 52.4093L127.046 55.3353ZM131.715 55.3353H132.371V53.0353L134.481 55.3353H135.372L132.93 52.7663L135.358 50.2163H134.439L132.375 52.5033V48.3963H131.719L131.715 55.3353ZM136.215 55.3353H136.871V50.2203H136.215V55.3353ZM136.543 49.2503C136.607 49.2506 136.67 49.2381 136.729 49.2135C136.787 49.189 136.841 49.1529 136.885 49.1074C136.93 49.0619 136.965 49.0079 136.988 48.9486C137.011 48.8893 137.023 48.826 137.021 48.7623C137.022 48.6991 137.011 48.6364 136.987 48.5778C136.964 48.5192 136.929 48.4659 136.884 48.4213C136.839 48.3766 136.786 48.3414 136.728 48.3179C136.669 48.2944 136.606 48.2829 136.543 48.2843C136.48 48.2829 136.417 48.2944 136.358 48.3179C136.3 48.3414 136.247 48.3766 136.202 48.4213C136.157 48.4659 136.122 48.5192 136.099 48.5778C136.075 48.6364 136.064 48.6991 136.065 48.7623C136.063 48.8264 136.075 48.8902 136.098 48.9498C136.122 49.0094 136.157 49.0636 136.203 49.1092C136.248 49.1548 136.301 49.1908 136.361 49.215C136.42 49.2393 136.484 49.2513 136.548 49.2503H136.543ZM138.062 52.7663C138.033 53.1046 138.074 53.4452 138.185 53.7664C138.295 54.0876 138.471 54.3821 138.702 54.6311C138.933 54.8802 139.213 55.0781 139.525 55.2123C139.837 55.3465 140.173 55.4139 140.513 55.4103C140.933 55.4291 141.349 55.3234 141.71 55.1066C142.07 54.8897 142.358 54.5713 142.538 54.1913V55.3353H143.194V48.3973H142.538V51.3203C142.345 50.9559 142.053 50.6524 141.697 50.4439C141.341 50.2353 140.934 50.1299 140.522 50.1393C140.183 50.133 139.846 50.198 139.534 50.3301C139.222 50.4622 138.941 50.6585 138.709 50.9062C138.478 51.1539 138.301 51.4474 138.19 51.7679C138.079 52.0883 138.037 52.4285 138.066 52.7663H138.062ZM142.534 52.7753C142.556 53.0379 142.522 53.3022 142.437 53.5514C142.351 53.8006 142.215 54.0293 142.036 54.2232C141.858 54.417 141.641 54.5718 141.399 54.6776C141.158 54.7835 140.898 54.8382 140.634 54.8383C140.369 54.8409 140.106 54.7878 139.863 54.6822C139.62 54.5767 139.401 54.4212 139.222 54.2257C139.043 54.0303 138.907 53.7994 138.823 53.548C138.739 53.2965 138.708 53.0302 138.734 52.7663C138.708 52.5032 138.738 52.2376 138.822 51.987C138.906 51.7363 139.043 51.5064 139.222 51.3124C139.402 51.1183 139.62 50.9646 139.864 50.8613C140.107 50.7581 140.37 50.7076 140.634 50.7133C140.898 50.7127 141.159 50.7669 141.401 50.8724C141.643 50.9779 141.86 51.1324 142.039 51.3262C142.218 51.52 142.355 51.7489 142.441 51.9983C142.527 52.2477 142.56 52.5123 142.539 52.7753H142.534ZM148.53 55.3353H149.177V52.3353C149.211 52.0477 149.181 51.7562 149.09 51.4812C148.999 51.2062 148.85 50.9544 148.651 50.7434C148.453 50.5324 148.211 50.3673 147.942 50.2597C147.673 50.1521 147.384 50.1045 147.095 50.1203C146.743 50.1004 146.392 50.1806 146.084 50.3515C145.775 50.5224 145.521 50.7772 145.351 51.0863V50.2203H144.695V55.3393H145.351V52.5413C145.351 51.2943 146.017 50.6943 146.973 50.6943C147.194 50.6835 147.415 50.7219 147.62 50.8066C147.824 50.8913 148.007 51.0203 148.156 51.1843C148.305 51.3482 148.416 51.5431 148.48 51.7549C148.545 51.9667 148.562 52.1902 148.53 52.4093V55.3353ZM152.815 50.7033C153.054 50.6874 153.293 50.7229 153.517 50.8074C153.741 50.8919 153.945 51.0235 154.113 51.1932C154.282 51.363 154.413 51.5669 154.496 51.7914C154.579 52.0158 154.613 52.2555 154.596 52.4943H150.996C150.993 52.2559 151.038 52.0193 151.128 51.7987C151.219 51.5781 151.353 51.3781 151.523 51.2108C151.693 51.0434 151.895 50.9122 152.116 50.825C152.338 50.7378 152.577 50.6964 152.815 50.7033ZM155.187 53.7133H154.493C154.392 54.0652 154.173 54.3713 153.872 54.5799C153.571 54.7884 153.208 54.8864 152.843 54.8573C152.6 54.8651 152.358 54.8233 152.131 54.7344C151.905 54.6456 151.699 54.5115 151.526 54.3405C151.354 54.1694 151.217 53.9649 151.126 53.7395C151.035 53.5141 150.991 53.2724 150.996 53.0293H155.243C155.259 52.8578 155.266 52.6855 155.262 52.5133C155.272 52.195 155.217 51.8779 155.098 51.5823C154.98 51.2867 154.801 51.0189 154.574 50.7959C154.346 50.5729 154.075 50.3996 153.777 50.2869C153.479 50.1742 153.161 50.1246 152.843 50.1413C152.499 50.1276 152.156 50.1874 151.837 50.3166C151.517 50.4459 151.229 50.6416 150.992 50.8907C150.754 51.1399 150.572 51.4368 150.458 51.7618C150.344 52.0867 150.3 52.4322 150.33 52.7753C150.302 53.118 150.347 53.4626 150.462 53.7867C150.577 54.1107 150.759 54.4068 150.996 54.6556C151.234 54.9044 151.521 55.1002 151.839 55.2303C152.157 55.3604 152.499 55.4217 152.843 55.4103C153.371 55.448 153.895 55.2986 154.323 54.9883C154.752 54.6779 155.057 54.2265 155.186 53.7133H155.187ZM158.318 54.5853L156.574 50.2203H155.852L157.952 55.3113L156.958 57.7493H157.642L160.68 50.2203H160.005L158.318 54.5853ZM163.84 52.7663C163.811 53.1042 163.852 53.4446 163.962 53.7655C164.072 54.0863 164.248 54.3807 164.479 54.6297C164.709 54.8786 164.989 55.0766 165.3 55.2111C165.612 55.3455 165.948 55.4134 166.287 55.4103C166.707 55.4291 167.123 55.3234 167.484 55.1066C167.844 54.8897 168.132 54.5713 168.312 54.1913V55.3353H168.968V48.3973H168.312V51.3203C168.119 50.9559 167.827 50.6524 167.471 50.4439C167.115 50.2353 166.708 50.1299 166.296 50.1393C165.957 50.133 165.62 50.198 165.308 50.3301C164.996 50.4622 164.715 50.6585 164.483 50.9062C164.252 51.1539 164.075 51.4474 163.964 51.7679C163.853 52.0883 163.811 52.4285 163.84 52.7663ZM168.312 52.7753C168.334 53.0379 168.3 53.3022 168.215 53.5514C168.129 53.8006 167.993 54.0293 167.814 54.2232C167.636 54.417 167.419 54.5718 167.177 54.6776C166.936 54.7835 166.676 54.8382 166.412 54.8383C166.147 54.8409 165.884 54.7878 165.641 54.6822C165.398 54.5767 165.179 54.4212 165 54.2257C164.821 54.0303 164.685 53.7994 164.601 53.548C164.517 53.2965 164.486 53.0302 164.512 52.7663C164.486 52.5032 164.516 52.2376 164.6 51.987C164.684 51.7363 164.821 51.5064 165 51.3124C165.18 51.1183 165.398 50.9646 165.642 50.8613C165.885 50.7581 166.148 50.7076 166.412 50.7133C166.675 50.7134 166.936 50.7681 167.177 50.8739C167.418 50.9797 167.635 51.1343 167.814 51.3281C167.992 51.5218 168.129 51.7504 168.214 51.9995C168.3 52.2486 168.333 52.5127 168.312 52.7753ZM170.468 55.3353H171.124V50.2203H170.468V55.3353ZM170.796 49.2503C170.86 49.2506 170.923 49.2381 170.982 49.2135C171.04 49.189 171.094 49.1529 171.138 49.1074C171.183 49.0619 171.218 49.0079 171.241 48.9486C171.264 48.8893 171.276 48.826 171.274 48.7623C171.275 48.6991 171.264 48.6364 171.24 48.5778C171.217 48.5192 171.182 48.4659 171.137 48.4213C171.092 48.3766 171.039 48.3414 170.981 48.3179C170.922 48.2944 170.859 48.2829 170.796 48.2843C170.733 48.2829 170.67 48.2944 170.611 48.3179C170.553 48.3414 170.5 48.3766 170.455 48.4213C170.41 48.4659 170.375 48.5192 170.352 48.5778C170.328 48.6364 170.317 48.6991 170.318 48.7623C170.316 48.8261 170.328 48.8895 170.351 48.9488C170.374 49.0082 170.409 49.0622 170.454 49.1077C170.499 49.1533 170.552 49.1893 170.611 49.2138C170.67 49.2383 170.732 49.2507 170.796 49.2503ZM176.159 53.9753C176.131 52.1653 173.103 52.9063 173.103 51.5193C173.103 51.0693 173.534 50.7033 174.219 50.7033C174.367 50.6831 174.517 50.6933 174.661 50.7333C174.804 50.7733 174.938 50.8423 175.054 50.9359C175.17 51.0296 175.265 51.146 175.335 51.278C175.404 51.4099 175.446 51.5547 175.457 51.7033H176.113C176.102 51.4741 176.043 51.2497 175.941 51.0443C175.838 50.8388 175.695 50.6568 175.518 50.5097C175.342 50.3626 175.138 50.2536 174.917 50.1895C174.697 50.1254 174.466 50.1076 174.238 50.1373C173.16 50.1373 172.438 50.7653 172.438 51.5253C172.438 53.4473 175.513 52.7063 175.513 53.9723C175.513 54.4603 175.1 54.8533 174.369 54.8533C173.535 54.8533 173.047 54.4533 172.991 53.8873H172.316C172.4 54.8253 173.216 55.4063 174.379 55.4063C175.438 55.4103 176.16 54.8003 176.16 53.9753H176.159ZM179.581 50.7033C179.82 50.6874 180.059 50.7229 180.283 50.8074C180.507 50.8919 180.711 51.0235 180.879 51.1932C181.048 51.363 181.179 51.5669 181.262 51.7914C181.345 52.0158 181.379 52.2555 181.362 52.4943H177.762C177.759 52.2557 177.804 52.0189 177.894 51.7982C177.985 51.5775 178.119 51.3774 178.289 51.21C178.46 51.0427 178.662 50.9115 178.884 50.8244C179.106 50.7373 179.342 50.6961 179.581 50.7033ZM181.953 53.7133H181.259C181.158 54.0652 180.939 54.3713 180.638 54.5799C180.337 54.7884 179.974 54.8864 179.609 54.8573C179.366 54.8651 179.124 54.8233 178.897 54.7344C178.671 54.6456 178.465 54.5115 178.292 54.3405C178.12 54.1694 177.983 53.9649 177.892 53.7395C177.801 53.5141 177.757 53.2724 177.762 53.0293H182.009C182.025 52.8578 182.032 52.6855 182.028 52.5133C182.038 52.195 181.983 51.8779 181.864 51.5823C181.746 51.2867 181.567 51.0189 181.34 50.7959C181.112 50.5729 180.841 50.3996 180.543 50.2869C180.245 50.1742 179.927 50.1246 179.609 50.1413C179.265 50.1276 178.922 50.1874 178.602 50.3167C178.283 50.446 177.995 50.6418 177.757 50.8911C177.519 51.1403 177.338 51.4374 177.224 51.7625C177.11 52.0875 177.066 52.4331 177.096 52.7763C177.068 53.119 177.114 53.4636 177.229 53.7876C177.344 54.1116 177.526 54.4076 177.763 54.6563C178 54.905 178.288 55.1007 178.606 55.2307C178.924 55.3606 179.266 55.4218 179.61 55.4103C180.138 55.4483 180.662 55.299 181.091 54.9886C181.52 54.6782 181.824 54.2267 181.953 53.7133ZM182.93 52.7663C182.901 53.1035 182.942 53.4431 183.051 53.7635C183.161 54.0838 183.336 54.3778 183.565 54.6266C183.795 54.8755 184.073 55.0737 184.384 55.2086C184.694 55.3436 185.03 55.4123 185.368 55.4103C185.788 55.4283 186.204 55.3236 186.566 55.1089C186.927 54.8941 187.218 54.5788 187.403 54.2013V55.3353H188.059V50.2203H187.403V51.3453C187.22 50.969 186.931 50.6547 186.571 50.4414C186.211 50.228 185.796 50.1251 185.378 50.1453C185.04 50.1399 184.705 50.2054 184.394 50.3375C184.083 50.4697 183.803 50.6656 183.572 50.9125C183.342 51.1595 183.165 51.452 183.055 51.7713C182.944 52.0906 182.902 52.4296 182.93 52.7663ZM187.402 52.7753C187.424 53.0379 187.39 53.3022 187.305 53.5514C187.219 53.8006 187.083 54.0293 186.904 54.2232C186.726 54.417 186.509 54.5718 186.267 54.6776C186.026 54.7835 185.766 54.8382 185.502 54.8383C185.237 54.8409 184.974 54.7878 184.731 54.6822C184.488 54.5767 184.269 54.4212 184.09 54.2257C183.911 54.0303 183.775 53.7994 183.691 53.548C183.607 53.2965 183.576 53.0302 183.602 52.7663C183.576 52.5032 183.606 52.2376 183.69 51.987C183.774 51.7363 183.911 51.5064 184.09 51.3124C184.27 51.1183 184.488 50.9646 184.732 50.8613C184.975 50.7581 185.238 50.7076 185.502 50.7133C185.765 50.7135 186.026 50.7683 186.267 50.8742C186.508 50.98 186.725 51.1347 186.903 51.3284C187.081 51.5221 187.218 51.7507 187.304 51.9997C187.389 52.2487 187.422 52.5128 187.401 52.7753H187.402ZM193.102 53.9753C193.074 52.1653 190.046 52.9063 190.046 51.5193C190.046 51.0693 190.477 50.7033 191.162 50.7033C191.31 50.6831 191.46 50.6933 191.604 50.7333C191.747 50.7733 191.881 50.8423 191.997 50.9359C192.113 51.0296 192.208 51.146 192.278 51.278C192.347 51.4099 192.389 51.5547 192.4 51.7033H193.056C193.045 51.4741 192.986 51.2497 192.884 51.0443C192.781 50.8388 192.638 50.6568 192.461 50.5097C192.285 50.3626 192.081 50.2536 191.86 50.1895C191.64 50.1254 191.409 50.1076 191.181 50.1373C190.103 50.1373 189.381 50.7653 189.381 51.5253C189.381 53.4473 192.456 52.7063 192.456 53.9723C192.456 54.4603 192.043 54.8533 191.312 54.8533C190.478 54.8533 189.99 54.4533 189.934 53.8873H189.259C189.343 54.8253 190.159 55.4063 191.322 55.4063C192.38 55.4103 193.102 54.8003 193.102 53.9753ZM196.524 50.7033C196.763 50.6874 197.002 50.7229 197.226 50.8074C197.45 50.8919 197.654 51.0235 197.822 51.1932C197.991 51.363 198.122 51.5669 198.205 51.7914C198.288 52.0158 198.322 52.2555 198.305 52.4943H194.705C194.702 52.2558 194.747 52.0191 194.837 51.7984C194.928 51.5778 195.062 51.3778 195.232 51.2104C195.402 51.0431 195.604 50.9119 195.826 50.8247C196.048 50.7375 196.286 50.6962 196.524 50.7033ZM198.896 53.7133H198.202C198.101 54.0652 197.882 54.3713 197.581 54.5799C197.28 54.7884 196.917 54.8864 196.552 54.8573C196.309 54.8651 196.067 54.8233 195.84 54.7344C195.614 54.6456 195.408 54.5115 195.235 54.3405C195.063 54.1694 194.926 53.9649 194.835 53.7395C194.744 53.5141 194.7 53.2724 194.705 53.0293H198.952C198.968 52.8578 198.975 52.6855 198.971 52.5133C198.981 52.195 198.926 51.8779 198.807 51.5823C198.689 51.2867 198.51 51.0189 198.283 50.7959C198.055 50.5729 197.784 50.3996 197.486 50.2869C197.188 50.1742 196.87 50.1246 196.552 50.1413C196.208 50.1276 195.865 50.1874 195.545 50.3167C195.226 50.446 194.938 50.6418 194.7 50.8911C194.462 51.1403 194.281 51.4374 194.167 51.7625C194.053 52.0875 194.009 52.4331 194.039 52.7763C194.011 53.119 194.056 53.4636 194.171 53.7877C194.286 54.1117 194.468 54.4078 194.705 54.6566C194.943 54.9054 195.23 55.1012 195.548 55.2313C195.866 55.3614 196.208 55.4227 196.552 55.4113C197.08 55.4492 197.605 55.2998 198.033 54.9892C198.462 54.6786 198.767 54.2268 198.896 53.7133Z" fill="#A82EDE"/>
<defs>
<radialGradient id="paint0_radial_3824_24" cx="0" cy="0" r="1" gradientUnits="userSpaceOnUse" gradientTransform="translate(22.1276 10.517) rotate(63.5108) scale(40.1945 49.8346)">
<stop stop-color="#DB48F7"/>
<stop offset="1" stop-color="#6F0BD1"/>
</radialGradient>
</defs>
</svg>
