<svg width="502" height="521" viewBox="0 0 502 521" fill="none" xmlns="http://www.w3.org/2000/svg">
<path d="M468.592 522.638V505.826H485.428V522.638H468.592ZM446.135 522.638V505.826H462.971V522.638H446.135ZM423.663 522.638V505.826H440.513V522.638H423.663ZM401.206 522.638V505.826H418.056V522.638H401.206ZM378.749 522.638V505.826H395.584V522.638H378.749ZM356.292 522.638V505.826H373.127V522.638H356.292ZM333.834 522.638V505.826H350.67V522.638H333.834ZM302.497 513.535V496.753H319.333V513.535H302.497ZM125.144 509.446C124.557 503.788 124.067 498.184 123.676 492.634H139.719V509.446H125.144ZM252.196 501.033V484.22H269.046V501.033H252.196ZM468.578 500.212V483.4H485.413V500.212H468.578ZM446.12 500.212V483.4H462.956V500.212H446.12ZM423.649 500.212V483.4H440.499V500.212H423.649ZM401.191 500.212V483.4H418.042V500.212H401.191ZM356.277 500.212V483.4H373.113V500.212H356.277ZM333.82 500.212V483.4H350.67V500.212H333.82ZM280.48 491.813V474.986H297.316V491.813H280.48ZM219.494 480.365V463.553H236.314V480.365H219.494ZM468.563 477.786V460.973H485.399V477.786H468.563ZM446.106 477.786V460.973H462.941V477.786H446.106ZM423.634 477.786V460.973H440.484V477.786H423.634ZM401.177 477.786V460.973H418.027V477.786H401.177ZM378.72 477.786V460.973H395.555V477.786H378.72ZM356.262 477.786V460.973H373.098V477.786H356.262ZM333.805 477.786V460.973H350.641V477.786H333.805ZM305.095 477.786V460.973H321.945V477.786H305.095ZM82.9889 474.986C80.6698 469.475 78.4632 463.866 76.3692 458.159H86.0419V474.986H82.9889ZM266.463 458.965V442.138H283.284V458.951L266.463 458.965ZM468.548 455.374V438.547H485.384V455.374H468.548ZM446.091 455.374V438.547H462.927V455.374H446.091ZM423.619 455.374V438.547H440.469V455.374H423.619ZM401.162 455.374V438.547H418.012V455.374H401.162ZM378.705 455.374V438.547H395.54V455.374H378.705ZM356.248 455.374V438.547H373.083V455.374H356.248ZM333.79 455.374V438.547H350.626V455.374H333.79ZM311.319 455.374V438.547H328.169V455.374H311.319ZM199.033 450.552V433.74H215.883V450.508L199.033 450.552ZM468.504 432.933V416.121H485.34V432.919L468.504 432.933ZM446.047 432.933V416.121H462.883V432.919L446.047 432.933ZM423.575 432.933V416.121H440.425V432.919L423.575 432.933ZM401.118 432.933V416.121H417.968V432.919L401.118 432.933ZM378.661 432.933V416.121H395.496V432.919L378.661 432.933ZM356.204 432.933V416.121H373.039V432.919L356.204 432.933ZM333.746 432.933V416.121H350.582V432.919L333.746 432.933ZM297.257 432.933V416.121H314.107V432.919L297.257 432.933ZM124.938 423.142C123.842 417.523 122.805 411.914 121.827 406.315H132.615V423.128L124.938 423.142ZM252.196 416.121V399.309H269.046V416.121H252.196ZM468.578 410.507V393.695H485.413V410.522L468.578 410.507ZM446.12 410.507V393.695H462.956V410.522L446.12 410.507ZM423.649 410.507V393.695H440.499V410.522L423.649 410.507ZM401.191 410.507V393.695H418.042V410.522L401.191 410.507ZM378.734 410.507V393.695H395.57V410.522L378.734 410.507ZM356.277 410.507V393.695H373.113V410.522L356.277 410.507ZM311.363 410.507V393.695H328.213V410.522L311.363 410.507ZM219.508 409.584C219.508 404.073 219.655 398.464 219.949 392.757H236.314V409.584H219.508ZM33.5831 407.708C32.1936 402.118 30.9068 396.509 29.7228 390.881H36.2838V407.708H33.5831ZM279.526 394.311V377.499H296.362V394.311H279.526ZM145.018 390.412V373.658H161.868V390.412H145.018ZM468.578 388.023V371.269H485.413V388.081L468.578 388.023ZM446.12 388.023V371.269H462.956V388.081L446.12 388.023ZM423.649 388.023V371.269H440.499V388.081L423.649 388.023ZM401.191 388.023V371.269H418.042V388.081L401.191 388.023ZM378.734 388.023V371.269H395.57V388.081L378.734 388.023ZM356.277 388.023V371.269H373.113V388.081L356.277 388.023ZM333.82 388.023V371.269H350.655V388.081L333.82 388.023ZM305.11 388.023V371.269H321.96V388.081L305.11 388.023ZM190.622 378.495V361.756H207.472V378.568L190.622 378.495ZM468.534 365.582V348.843H485.369V365.655L468.534 365.582ZM446.076 365.582V348.843H462.912V365.655L446.076 365.582ZM423.605 365.582V348.843H440.455V365.655L423.605 365.582ZM401.147 365.582V348.843H417.998V365.655L401.147 365.582ZM378.69 365.582V348.843H395.526V365.655L378.69 365.582ZM356.233 365.582V348.843H373.069V365.655L356.233 365.582ZM327.538 365.582V348.843H344.373V365.655L327.538 365.582ZM280.436 361.302V344.563H297.272V361.375L280.436 361.302ZM242.406 346.85C242.983 341.28 243.668 335.671 244.461 330.023H256.687V346.85H242.406ZM468.504 343.156V326.417H485.34V343.229L468.504 343.156ZM446.047 343.156V326.417H462.883V343.229L446.047 343.156ZM423.575 343.156V326.417H440.425V343.229L423.575 343.156ZM401.118 343.156V326.417H417.968V343.229L401.118 343.156ZM378.661 343.156V326.417H395.496V343.229L378.661 343.156ZM333.746 343.156V326.417H350.582V343.229L333.746 343.156ZM305.036 343.156V326.417H321.887V343.229L305.036 343.156ZM144.974 334.742V318.003H161.824V334.816L144.974 334.742ZM468.49 320.73V303.932H485.325V320.744L468.49 320.73ZM446.032 320.73V303.932H462.868V320.744L446.032 320.73ZM423.561 320.73V303.932H440.411V320.744L423.561 320.73ZM401.103 320.73V303.932H417.954V320.744L401.103 320.73ZM378.646 320.73V303.932H395.482V320.744L378.646 320.73ZM356.189 320.73V303.932H373.024V320.744L356.189 320.73ZM258.038 317.945V301.191H274.888V318.003L258.038 317.945ZM212.155 317.945C213.251 312.336 214.439 306.732 215.721 301.133H219.714V318.003L212.155 317.945ZM19.962 317.945C19.6684 312.267 19.5021 306.663 19.4629 301.133H36.2838V318.003L19.962 317.945ZM327.611 314.515V297.761H344.447V314.574L327.611 314.515ZM468.592 298.392V281.565H485.428V298.392H468.592ZM446.135 298.392V281.565H462.971V298.392H446.135ZM423.663 298.392V281.565H440.513V298.392H423.663ZM401.206 298.392V281.565H418.056V298.392H401.206ZM378.749 298.392V281.565H395.584V298.392H378.749ZM356.292 298.392V281.565H373.127V298.392H356.292ZM288.92 298.392V281.565H305.77V298.392H288.92ZM86.8052 295.577V278.765H103.655V295.577H86.8052ZM243.771 284.364V267.552H260.621V284.364H243.771ZM468.592 275.951V259.139H485.428V275.951H468.592ZM446.135 275.951V259.139H462.971V275.951H446.135ZM401.221 275.951V259.139H418.071V275.951H401.221ZM378.764 275.951V259.139H395.599V275.951H378.764ZM333.849 275.951V259.139H350.699V275.951H333.849ZM0 273.151C0.322914 267.611 0.748574 262.007 1.27698 256.339H16.1457V273.151H0ZM169.677 264.752V247.926H186.512V264.752H169.677ZM132.292 256.339C135.228 250.579 138.163 244.965 141.26 239.527H147.983V256.339H132.292ZM266.478 256.339V239.527H283.284V256.339H266.478ZM468.592 253.539V236.713H485.428V253.539H468.592ZM446.135 253.539V236.713H462.971V253.539H446.135ZM423.663 253.539V236.713H440.513V253.539H423.663ZM401.206 253.539V236.713H418.056V253.539H401.206ZM356.292 253.539V236.713H373.127V253.539H356.292ZM311.377 253.539V236.713H328.227V253.539H311.377ZM64.348 250.74V233.913H81.1982V250.725L64.348 250.74ZM468.578 231.113V214.286H485.413V231.099L468.578 231.113ZM446.12 231.113V214.286H462.956V231.099L446.12 231.113ZM423.649 231.113V214.286H440.499V231.099L423.649 231.113ZM401.191 231.113V214.286H418.042V231.099L401.191 231.113ZM378.734 231.113V214.286H395.57V231.099L378.734 231.113ZM333.82 231.113V214.286H350.67V231.099L333.82 231.113ZM258.023 225.499V208.658H274.873V225.47L258.023 225.499ZM215.927 222.7C217.884 217.023 219.978 211.414 222.209 205.873H227.919V222.7H215.927ZM468.548 208.687V191.86H485.384V208.658L468.548 208.687ZM423.634 208.687V191.86H440.484V208.658L423.634 208.687ZM401.177 208.687V191.86H418.027V208.658L401.177 208.687ZM356.262 208.687V191.86H373.098V208.658L356.262 208.687ZM161.208 205.888V189.061H178.043V205.873L161.208 205.888ZM297.316 205.888V189.061H314.166V205.873L297.316 205.888ZM41.9201 205.888V189.061H58.7117V205.873L41.9201 205.888ZM468.607 186.276V169.434H485.443V186.261L468.607 186.276ZM446.15 186.276V169.434H462.985V186.261L446.15 186.276ZM401.235 186.276V169.434H418.086V186.261L401.235 186.276ZM378.778 186.276V169.434H395.614V186.261L378.778 186.276ZM333.864 186.276V172.263C334.524 171.31 335.199 170.387 335.86 169.449H350.699V186.276H333.864ZM252.196 177.877V161.021H269.046V177.877H252.196ZM8.0435 177.877C8.88503 172.288 9.81952 166.679 10.847 161.05H19.4629V177.877H8.0435ZM110.422 163.864V147.008H127.272V163.82L110.422 163.864ZM484.797 163.864V147.008H501.632V163.82L484.797 163.864ZM319.788 159.189V142.347H336.623V159.159L319.788 159.189ZM401.191 157.62V140.779H418.042V157.591L401.191 157.62ZM364.702 155.451V138.595H381.626V155.407L364.702 155.451ZM176.619 155.451V138.595H193.455V155.407L176.619 155.451ZM460.138 155.451V138.595H477.032V155.407L460.138 155.451ZM432.074 147.037V130.196H448.924V147.008L432.074 147.037ZM249.627 138.595V121.782H266.478V138.595H249.627ZM483.006 132.116V115.304H499.842V132.116H483.006ZM313.579 124.538V107.726H330.429V124.538H313.579ZM452.667 121.826V105H469.502V121.826H452.667ZM415.238 116.315V99.4443H432.088V116.315H415.238ZM64.3626 116.169V99.3564H81.1982V116.183L64.3626 116.169ZM373.142 114.586V97.7734H389.992V114.586H373.142ZM102.011 110.555V93.7425H118.891V110.555H102.011ZM203.744 107.755V90.9576H220.594V107.77L203.744 107.755ZM5.34276 102.156V94.4461C6.32129 91.3973 7.29982 88.3632 8.27834 85.3438H22.1783V102.156H5.34276ZM131.72 93.7425V76.9303H148.57V93.7425H131.72ZM461.092 88.8909V77.7658C466.596 79.3928 472.218 81.3862 477.942 83.7021V88.9055L461.092 88.8909ZM249.627 83.3357V76.7398C255.083 74.2723 260.715 72.2145 266.478 70.5836V83.3357H249.627ZM339.163 83.3357V66.4795H355.939V83.321L339.163 83.3357ZM401.279 57.3185V43.0273C406.595 41.791 411.99 40.9242 417.425 40.433H418.086V57.3038L401.279 57.3185ZM145.018 48.8904V32.767L146.06 32.0195H161.868V48.8904H145.018ZM280.51 44.2293V27.417H296.978L297.36 27.6809V44.2439L280.51 44.2293ZM219.523 40.4769V23.6647H236.314V40.4916L219.523 40.4769ZM335.919 25.5262V8.72862H352.769V25.5409L335.919 25.5262ZM30.9264 23.6647C34.3757 19.1062 37.9424 14.7382 41.6412 10.5901V23.6647H30.9264ZM80.0533 16.5265C84.3443 12.3256 88.8621 8.36211 93.5864 4.65382V16.5265H80.0533ZM141.48 4.0382C143.809 2.65062 146.177 1.34121 148.585 0.10997V4.0382H141.48Z" fill="url(#paint0_radial_3839_9534)" fill-opacity="0.1"/>
<defs>
<radialGradient id="paint0_radial_3839_9534" cx="0" cy="0" r="1" gradientUnits="userSpaceOnUse" gradientTransform="translate(67 42) rotate(49.5913) scale(803.613 997.182)">
<stop stop-color="#EC8AFF"/>
<stop offset="1" stop-color="#FF00E1"/>
</radialGradient>
</defs>
</svg>
