<svg width="164" height="46" viewBox="0 0 164 46" fill="none" xmlns="http://www.w3.org/2000/svg">
<path opacity="0.5" d="M10.6667 5.33301C10.6667 8.27853 8.2789 10.6663 5.33337 10.6663C2.38786 10.6663 4.57764e-05 8.27853 4.57764e-05 5.33301C4.57764e-05 2.38749 2.38786 -0.00032568 5.33337 -0.00032568C8.2789 -0.00032568 10.6667 2.38749 10.6667 5.33301ZM158.333 45.333L151.616 35.9407L163.109 34.8198L158.333 45.333ZM156.944 41.3368C156.837 40.7951 157.189 40.269 157.731 40.1618C158.272 40.0546 158.799 40.4069 158.906 40.9487L157.925 41.1428L156.944 41.3368ZM155.548 32.8473C155.855 33.3062 155.732 33.9273 155.273 34.2346C154.814 34.5418 154.193 34.4189 153.886 33.9599L154.717 33.4036L155.548 32.8473ZM148.236 28.3098C147.777 28.0025 147.654 27.3814 147.961 26.9225C148.268 26.4636 148.89 26.3406 149.349 26.6478L148.792 27.4788L148.236 28.3098ZM141.247 23.2901C141.789 23.3973 142.141 23.9234 142.034 24.4652C141.927 25.0069 141.401 25.3593 140.859 25.2521L141.053 24.2711L141.247 23.2901ZM133.332 24.8624C132.779 24.8624 132.332 24.4147 132.332 23.8624C132.332 23.3101 132.779 22.8624 133.332 22.8624V23.8624V24.8624ZM126.269 22.8624C126.821 22.8624 127.269 23.3101 127.269 23.8624C127.269 24.4147 126.821 24.8624 126.269 24.8624V23.8624V22.8624ZM119.207 24.8624C118.654 24.8624 118.207 24.4147 118.207 23.8624C118.207 23.3101 118.654 22.8624 119.207 22.8624V23.8624V24.8624ZM112.144 22.8624C112.696 22.8624 113.144 23.3101 113.144 23.8624C113.144 24.4147 112.696 24.8624 112.144 24.8624V23.8624V22.8624ZM105.082 24.8624C104.529 24.8624 104.082 24.4147 104.082 23.8624C104.082 23.3101 104.529 22.8624 105.082 22.8624V23.8624V24.8624ZM98.019 22.8624C98.5713 22.8624 99.019 23.3101 99.019 23.8624C99.019 24.4147 98.5713 24.8624 98.019 24.8624V23.8624V22.8624ZM90.9565 24.8624C90.4043 24.8624 89.9565 24.4147 89.9565 23.8624C89.9565 23.3101 90.4043 22.8624 90.9565 22.8624V23.8624V24.8624ZM83.894 22.8624C84.4463 22.8624 84.894 23.3101 84.894 23.8624C84.894 24.4147 84.4463 24.8624 83.894 24.8624V23.8624V22.8624ZM76.8315 24.8624C76.2793 24.8624 75.8315 24.4147 75.8315 23.8624C75.8315 23.3101 76.2793 22.8624 76.8315 22.8624V23.8624V24.8624ZM69.769 22.8624C70.3213 22.8624 70.769 23.3101 70.769 23.8624C70.769 24.4147 70.3213 24.8624 69.769 24.8624V23.8624V22.8624ZM62.7065 24.8624C62.1543 24.8624 61.7065 24.4147 61.7065 23.8624C61.7065 23.3101 62.1543 22.8624 62.7065 22.8624V23.8624V24.8624ZM55.644 22.8624C56.1963 22.8624 56.644 23.3101 56.644 23.8624C56.644 24.4147 56.1963 24.8624 55.644 24.8624V23.8624V22.8624ZM48.5815 24.8624C48.0293 24.8624 47.5815 24.4147 47.5815 23.8624C47.5815 23.3101 48.0293 22.8624 48.5815 22.8624V23.8624V24.8624ZM41.519 22.8624C42.0713 22.8624 42.519 23.3101 42.519 23.8624C42.519 24.4147 42.0713 24.8624 41.519 24.8624V23.8624V22.8624ZM34.4565 24.8624C33.9043 24.8624 33.4565 24.4147 33.4565 23.8624C33.4565 23.3101 33.9043 22.8624 34.4565 22.8624V23.8624V24.8624ZM27.394 22.8624C27.9463 22.8624 28.394 23.3101 28.394 23.8624C28.394 24.4147 27.9463 24.8624 27.394 24.8624V23.8624V22.8624ZM20.0525 24.4907C19.5107 24.3835 19.1584 23.8574 19.2656 23.3157C19.3728 22.7739 19.8988 22.4216 20.4406 22.5287L20.2466 23.5097L20.0525 24.4907ZM14.1239 19.9105C14.5828 20.2177 14.7058 20.8388 14.3985 21.2977C14.0913 21.7567 13.4702 21.8796 13.0112 21.5724L13.5676 20.7414L14.1239 19.9105ZM7.62341 16.1846C7.31616 15.7256 7.43912 15.1045 7.89806 14.7973C8.35698 14.49 8.97809 14.613 9.28534 15.0719L8.45438 15.6282L7.62341 16.1846ZM6.66705 8.75518C6.77423 9.29696 6.42192 9.82305 5.88014 9.93023C5.33835 10.0374 4.81226 9.6851 4.70508 9.14332L5.68607 8.94925L6.66705 8.75518ZM154.717 33.4036L153.886 33.9599C152.391 31.7272 150.469 29.8046 148.236 28.3098L148.792 27.4788L149.349 26.6478C151.799 28.2881 153.908 30.3973 155.548 32.8473L154.717 33.4036ZM141.053 24.2711L140.859 25.2521C139.567 24.9966 138.231 24.8624 136.863 24.8624V23.8624V22.8624C138.362 22.8624 139.828 23.0094 141.247 23.2901L141.053 24.2711ZM136.863 23.8624V24.8624H133.332V23.8624V22.8624H136.863V23.8624ZM126.269 23.8624V24.8624H119.207V23.8624V22.8624H126.269V23.8624ZM112.144 23.8624V24.8624H105.082V23.8624V22.8624H112.144V23.8624ZM98.019 23.8624V24.8624H90.9565V23.8624V22.8624H98.019V23.8624ZM83.894 23.8624V24.8624H76.8315V23.8624V22.8624H83.894V23.8624ZM69.769 23.8624V24.8624H62.7065V23.8624V22.8624H69.769V23.8624ZM55.644 23.8624V24.8624H48.5815V23.8624V22.8624H55.644V23.8624ZM41.519 23.8624V24.8624H34.4565V23.8624V22.8624H41.519V23.8624ZM27.394 23.8624V24.8624H23.8628V23.8624V22.8624H27.394V23.8624ZM23.8628 23.8624V24.8624C22.5598 24.8624 21.2856 24.7347 20.0525 24.4907L20.2466 23.5097L20.4406 22.5287C21.5466 22.7475 22.6908 22.8624 23.8628 22.8624V23.8624ZM13.5676 20.7414L13.0112 21.5724C10.882 20.1469 9.04892 18.3138 7.62341 16.1846L8.45438 15.6282L9.28534 15.0719C10.5654 16.984 12.2118 18.6304 14.1239 19.9105L13.5676 20.7414ZM5.68607 8.94925L4.70508 9.14332C4.46112 7.91016 4.33337 6.63601 4.33337 5.33301H5.33337H6.33337C6.33337 6.505 6.44826 7.64916 6.66705 8.75518L5.68607 8.94925Z" fill="#004EEE"/>
</svg>
